<mxfile host="Electron" modified="2023-11-23T12:49:16.692Z" agent="Mozilla/5.0 (Windows NT 10.0; Win64; x64) AppleWebKit/537.36 (KHTML, like Gecko) draw.io/22.1.2 Chrome/114.0.5735.289 Electron/25.9.4 Safari/537.36" etag="UK0Jx1P202Ytr-1X70Qp" version="22.1.2" type="device">
  <diagram name="Seite-1" id="T7EbDTbt2JDA7oNdMb9G">
    <mxGraphModel dx="4468" dy="2088" grid="1" gridSize="10" guides="1" tooltips="1" connect="1" arrows="1" fold="1" page="0" pageScale="1" pageWidth="827" pageHeight="1169" math="0" shadow="0">
      <root>
        <mxCell id="0" />
        <mxCell id="1" parent="0" />
        <mxCell id="K28dcVF4U-_2Pks2xvg8-66" style="edgeStyle=orthogonalEdgeStyle;shape=connector;rounded=0;orthogonalLoop=1;jettySize=auto;html=1;exitX=0;exitY=0;exitDx=0;exitDy=0;labelBackgroundColor=default;strokeColor=default;align=center;verticalAlign=middle;fontFamily=Helvetica;fontSize=11;fontColor=default;endArrow=none;endFill=0;" parent="1" edge="1">
          <mxGeometry relative="1" as="geometry">
            <mxPoint x="160.00000000000023" y="30.08695652173924" as="targetPoint" />
            <mxPoint x="285.85786437625666" y="29.857864376256657" as="sourcePoint" />
            <Array as="points">
              <mxPoint x="220" y="30" />
            </Array>
          </mxGeometry>
        </mxCell>
        <mxCell id="K28dcVF4U-_2Pks2xvg8-1" value="+" style="ellipse;whiteSpace=wrap;html=1;aspect=fixed;" parent="1" vertex="1">
          <mxGeometry x="280" y="20" width="40" height="40" as="geometry" />
        </mxCell>
        <mxCell id="K28dcVF4U-_2Pks2xvg8-72" style="edgeStyle=orthogonalEdgeStyle;shape=connector;rounded=0;orthogonalLoop=1;jettySize=auto;html=1;exitX=0;exitY=0.5;exitDx=0;exitDy=0;labelBackgroundColor=default;strokeColor=default;align=center;verticalAlign=middle;fontFamily=Helvetica;fontSize=11;fontColor=default;endArrow=none;endFill=0;" parent="1" source="K28dcVF4U-_2Pks2xvg8-2" edge="1">
          <mxGeometry relative="1" as="geometry">
            <mxPoint x="360" y="40" as="targetPoint" />
          </mxGeometry>
        </mxCell>
        <mxCell id="K28dcVF4U-_2Pks2xvg8-90" value="8" style="edgeLabel;html=1;align=center;verticalAlign=middle;resizable=0;points=[];fontSize=11;fontFamily=Helvetica;fontColor=default;" parent="K28dcVF4U-_2Pks2xvg8-72" vertex="1" connectable="0">
          <mxGeometry x="-0.7532" y="-3" relative="1" as="geometry">
            <mxPoint as="offset" />
          </mxGeometry>
        </mxCell>
        <mxCell id="K28dcVF4U-_2Pks2xvg8-75" style="edgeStyle=orthogonalEdgeStyle;shape=connector;rounded=0;orthogonalLoop=1;jettySize=auto;html=1;exitX=0;exitY=1;exitDx=0;exitDy=0;labelBackgroundColor=default;strokeColor=default;align=center;verticalAlign=middle;fontFamily=Helvetica;fontSize=11;fontColor=default;endArrow=none;endFill=0;" parent="1" source="K28dcVF4U-_2Pks2xvg8-2" edge="1">
          <mxGeometry relative="1" as="geometry">
            <mxPoint x="240" y="134.31578947368416" as="targetPoint" />
          </mxGeometry>
        </mxCell>
        <mxCell id="K28dcVF4U-_2Pks2xvg8-91" value="8" style="edgeLabel;html=1;align=center;verticalAlign=middle;resizable=0;points=[];fontSize=11;fontFamily=Helvetica;fontColor=default;" parent="K28dcVF4U-_2Pks2xvg8-75" vertex="1" connectable="0">
          <mxGeometry x="-0.3798" relative="1" as="geometry">
            <mxPoint as="offset" />
          </mxGeometry>
        </mxCell>
        <mxCell id="K28dcVF4U-_2Pks2xvg8-2" value="+" style="ellipse;whiteSpace=wrap;html=1;aspect=fixed;" parent="1" vertex="1">
          <mxGeometry x="380" y="100" width="40" height="40" as="geometry" />
        </mxCell>
        <mxCell id="K28dcVF4U-_2Pks2xvg8-37" style="edgeStyle=orthogonalEdgeStyle;rounded=0;orthogonalLoop=1;jettySize=auto;html=1;exitX=1;exitY=0.5;exitDx=0;exitDy=0;entryX=0;entryY=0.5;entryDx=0;entryDy=0;endArrow=none;endFill=0;" parent="1" source="K28dcVF4U-_2Pks2xvg8-3" target="K28dcVF4U-_2Pks2xvg8-28" edge="1">
          <mxGeometry relative="1" as="geometry" />
        </mxCell>
        <mxCell id="K28dcVF4U-_2Pks2xvg8-103" style="edgeStyle=orthogonalEdgeStyle;shape=connector;rounded=0;orthogonalLoop=1;jettySize=auto;html=1;exitX=0;exitY=1;exitDx=0;exitDy=0;labelBackgroundColor=default;strokeColor=default;align=center;verticalAlign=middle;fontFamily=Helvetica;fontSize=11;fontColor=default;endArrow=oval;endFill=1;" parent="1" source="K28dcVF4U-_2Pks2xvg8-3" edge="1">
          <mxGeometry relative="1" as="geometry">
            <mxPoint x="80" y="60" as="targetPoint" />
          </mxGeometry>
        </mxCell>
        <mxCell id="K28dcVF4U-_2Pks2xvg8-104" style="edgeStyle=orthogonalEdgeStyle;shape=connector;rounded=0;orthogonalLoop=1;jettySize=auto;html=1;exitX=0;exitY=0;exitDx=0;exitDy=0;labelBackgroundColor=default;strokeColor=default;align=center;verticalAlign=middle;fontFamily=Helvetica;fontSize=11;fontColor=default;endArrow=oval;endFill=1;" parent="1" source="K28dcVF4U-_2Pks2xvg8-3" edge="1">
          <mxGeometry relative="1" as="geometry">
            <mxPoint x="120" y="-40" as="targetPoint" />
          </mxGeometry>
        </mxCell>
        <mxCell id="K28dcVF4U-_2Pks2xvg8-3" value="-" style="ellipse;whiteSpace=wrap;html=1;aspect=fixed;" parent="1" vertex="1">
          <mxGeometry x="280" y="180" width="40" height="40" as="geometry" />
        </mxCell>
        <mxCell id="K28dcVF4U-_2Pks2xvg8-40" style="edgeStyle=orthogonalEdgeStyle;shape=connector;rounded=0;orthogonalLoop=1;jettySize=auto;html=1;exitX=1;exitY=0.5;exitDx=0;exitDy=0;exitPerimeter=0;labelBackgroundColor=default;strokeColor=default;align=center;verticalAlign=middle;fontFamily=Helvetica;fontSize=11;fontColor=default;endArrow=none;endFill=0;" parent="1" source="K28dcVF4U-_2Pks2xvg8-7" target="K28dcVF4U-_2Pks2xvg8-31" edge="1">
          <mxGeometry relative="1" as="geometry" />
        </mxCell>
        <mxCell id="K28dcVF4U-_2Pks2xvg8-7" value="and" style="verticalLabelPosition=bottom;shadow=0;dashed=0;align=center;html=1;verticalAlign=top;shape=mxgraph.electrical.iec_logic_gates.and;" parent="1" vertex="1">
          <mxGeometry x="210" y="400" width="60" height="80" as="geometry" />
        </mxCell>
        <mxCell id="K28dcVF4U-_2Pks2xvg8-39" style="edgeStyle=orthogonalEdgeStyle;shape=connector;rounded=0;orthogonalLoop=1;jettySize=auto;html=1;exitX=1;exitY=0.5;exitDx=0;exitDy=0;exitPerimeter=0;entryX=0;entryY=0.5;entryDx=0;entryDy=0;labelBackgroundColor=default;strokeColor=default;align=center;verticalAlign=middle;fontFamily=Helvetica;fontSize=11;fontColor=default;endArrow=none;endFill=0;" parent="1" source="K28dcVF4U-_2Pks2xvg8-8" target="K28dcVF4U-_2Pks2xvg8-30" edge="1">
          <mxGeometry relative="1" as="geometry" />
        </mxCell>
        <mxCell id="K28dcVF4U-_2Pks2xvg8-8" value="XOR" style="verticalLabelPosition=bottom;shadow=0;dashed=0;align=center;html=1;verticalAlign=top;shape=mxgraph.electrical.iec_logic_gates.xor;" parent="1" vertex="1">
          <mxGeometry x="300" y="320" width="60" height="80" as="geometry" />
        </mxCell>
        <mxCell id="K28dcVF4U-_2Pks2xvg8-38" style="edgeStyle=orthogonalEdgeStyle;shape=connector;rounded=0;orthogonalLoop=1;jettySize=auto;html=1;exitX=1;exitY=0.5;exitDx=0;exitDy=0;exitPerimeter=0;entryX=0;entryY=0.5;entryDx=0;entryDy=0;labelBackgroundColor=default;strokeColor=default;align=center;verticalAlign=middle;fontFamily=Helvetica;fontSize=11;fontColor=default;endArrow=none;endFill=0;" parent="1" source="K28dcVF4U-_2Pks2xvg8-9" target="K28dcVF4U-_2Pks2xvg8-29" edge="1">
          <mxGeometry relative="1" as="geometry" />
        </mxCell>
        <mxCell id="K28dcVF4U-_2Pks2xvg8-105" style="edgeStyle=orthogonalEdgeStyle;shape=connector;rounded=0;orthogonalLoop=1;jettySize=auto;html=1;exitX=-0.003;exitY=0.776;exitDx=0;exitDy=0;exitPerimeter=0;labelBackgroundColor=default;strokeColor=default;align=center;verticalAlign=middle;fontFamily=Helvetica;fontSize=11;fontColor=default;endArrow=oval;endFill=1;" parent="1" source="K28dcVF4U-_2Pks2xvg8-9" edge="1">
          <mxGeometry relative="1" as="geometry">
            <mxPoint x="80" y="214" as="targetPoint" />
            <mxPoint x="210.5400000000002" y="304.80000000000007" as="sourcePoint" />
            <Array as="points">
              <mxPoint x="80" y="300" />
            </Array>
          </mxGeometry>
        </mxCell>
        <mxCell id="K28dcVF4U-_2Pks2xvg8-106" style="edgeStyle=orthogonalEdgeStyle;shape=connector;rounded=0;orthogonalLoop=1;jettySize=auto;html=1;exitX=0;exitY=0.275;exitDx=0;exitDy=0;exitPerimeter=0;labelBackgroundColor=default;strokeColor=default;align=center;verticalAlign=middle;fontFamily=Helvetica;fontSize=11;fontColor=default;endArrow=oval;endFill=1;" parent="1" source="K28dcVF4U-_2Pks2xvg8-9" edge="1">
          <mxGeometry relative="1" as="geometry">
            <mxPoint x="120" y="186" as="targetPoint" />
            <mxPoint x="209.3399999999997" y="256" as="sourcePoint" />
            <Array as="points">
              <mxPoint x="120" y="260" />
            </Array>
          </mxGeometry>
        </mxCell>
        <mxCell id="K28dcVF4U-_2Pks2xvg8-9" value="or" style="verticalLabelPosition=bottom;shadow=0;dashed=0;align=center;html=1;verticalAlign=top;shape=mxgraph.electrical.iec_logic_gates.or;" parent="1" vertex="1">
          <mxGeometry x="210" y="238" width="60" height="80" as="geometry" />
        </mxCell>
        <mxCell id="K28dcVF4U-_2Pks2xvg8-17" value="" style="endArrow=none;html=1;rounded=0;entryX=1;entryY=0.5;entryDx=0;entryDy=0;" parent="1" edge="1">
          <mxGeometry width="50" height="50" relative="1" as="geometry">
            <mxPoint x="640" y="40" as="sourcePoint" />
            <mxPoint x="320" y="40" as="targetPoint" />
          </mxGeometry>
        </mxCell>
        <mxCell id="K28dcVF4U-_2Pks2xvg8-89" value="8" style="edgeLabel;html=1;align=center;verticalAlign=middle;resizable=0;points=[];fontSize=11;fontFamily=Helvetica;fontColor=default;" parent="K28dcVF4U-_2Pks2xvg8-17" vertex="1" connectable="0">
          <mxGeometry x="0.5675" y="3" relative="1" as="geometry">
            <mxPoint as="offset" />
          </mxGeometry>
        </mxCell>
        <mxCell id="K28dcVF4U-_2Pks2xvg8-35" value="" style="group" parent="1" vertex="1" connectable="0">
          <mxGeometry x="640" y="-80" width="160" height="800" as="geometry" />
        </mxCell>
        <mxCell id="K28dcVF4U-_2Pks2xvg8-12" value="" style="endArrow=none;html=1;rounded=0;" parent="K28dcVF4U-_2Pks2xvg8-35" edge="1">
          <mxGeometry width="50" height="50" relative="1" as="geometry">
            <mxPoint y="800.0000000000001" as="sourcePoint" />
            <mxPoint as="targetPoint" />
          </mxGeometry>
        </mxCell>
        <mxCell id="K28dcVF4U-_2Pks2xvg8-13" value="" style="endArrow=none;html=1;rounded=0;" parent="K28dcVF4U-_2Pks2xvg8-35" edge="1">
          <mxGeometry width="50" height="50" relative="1" as="geometry">
            <mxPoint x="120" y="640" as="sourcePoint" />
            <mxPoint y="800.0000000000001" as="targetPoint" />
          </mxGeometry>
        </mxCell>
        <mxCell id="K28dcVF4U-_2Pks2xvg8-14" value="" style="endArrow=none;html=1;rounded=0;" parent="K28dcVF4U-_2Pks2xvg8-35" edge="1">
          <mxGeometry width="50" height="50" relative="1" as="geometry">
            <mxPoint x="120" y="160" as="sourcePoint" />
            <mxPoint as="targetPoint" />
          </mxGeometry>
        </mxCell>
        <mxCell id="K28dcVF4U-_2Pks2xvg8-15" value="" style="endArrow=none;html=1;rounded=0;" parent="K28dcVF4U-_2Pks2xvg8-35" edge="1">
          <mxGeometry width="50" height="50" relative="1" as="geometry">
            <mxPoint x="120" y="640" as="sourcePoint" />
            <mxPoint x="120" y="160" as="targetPoint" />
          </mxGeometry>
        </mxCell>
        <mxCell id="K28dcVF4U-_2Pks2xvg8-16" value="" style="endArrow=none;html=1;rounded=0;" parent="K28dcVF4U-_2Pks2xvg8-35" edge="1">
          <mxGeometry width="50" height="50" relative="1" as="geometry">
            <mxPoint x="160" y="400.00000000000006" as="sourcePoint" />
            <mxPoint x="120" y="400.00000000000006" as="targetPoint" />
          </mxGeometry>
        </mxCell>
        <mxCell id="K28dcVF4U-_2Pks2xvg8-18" value="0" style="text;html=1;strokeColor=none;fillColor=none;align=center;verticalAlign=middle;whiteSpace=wrap;rounded=0;" parent="K28dcVF4U-_2Pks2xvg8-35" vertex="1">
          <mxGeometry y="90.00000000000001" width="20" height="60" as="geometry" />
        </mxCell>
        <mxCell id="K28dcVF4U-_2Pks2xvg8-27" value="1" style="text;html=1;strokeColor=none;fillColor=none;align=center;verticalAlign=middle;whiteSpace=wrap;rounded=0;" parent="K28dcVF4U-_2Pks2xvg8-35" vertex="1">
          <mxGeometry y="168" width="20" height="60" as="geometry" />
        </mxCell>
        <mxCell id="K28dcVF4U-_2Pks2xvg8-28" value="2" style="text;html=1;strokeColor=none;fillColor=none;align=center;verticalAlign=middle;whiteSpace=wrap;rounded=0;" parent="K28dcVF4U-_2Pks2xvg8-35" vertex="1">
          <mxGeometry y="250" width="20" height="60" as="geometry" />
        </mxCell>
        <mxCell id="K28dcVF4U-_2Pks2xvg8-29" value="3" style="text;html=1;strokeColor=none;fillColor=none;align=center;verticalAlign=middle;whiteSpace=wrap;rounded=0;" parent="K28dcVF4U-_2Pks2xvg8-35" vertex="1">
          <mxGeometry y="328" width="20" height="60" as="geometry" />
        </mxCell>
        <mxCell id="K28dcVF4U-_2Pks2xvg8-30" value="4" style="text;html=1;strokeColor=none;fillColor=none;align=center;verticalAlign=middle;whiteSpace=wrap;rounded=0;" parent="K28dcVF4U-_2Pks2xvg8-35" vertex="1">
          <mxGeometry y="410.00000000000006" width="20" height="60" as="geometry" />
        </mxCell>
        <mxCell id="K28dcVF4U-_2Pks2xvg8-31" value="5" style="text;html=1;strokeColor=none;fillColor=none;align=center;verticalAlign=middle;whiteSpace=wrap;rounded=0;" parent="K28dcVF4U-_2Pks2xvg8-35" vertex="1">
          <mxGeometry y="490" width="20" height="60" as="geometry" />
        </mxCell>
        <mxCell id="K28dcVF4U-_2Pks2xvg8-113" style="edgeStyle=orthogonalEdgeStyle;shape=connector;rounded=0;orthogonalLoop=1;jettySize=auto;html=1;exitX=0;exitY=0.5;exitDx=0;exitDy=0;labelBackgroundColor=default;strokeColor=default;align=center;verticalAlign=middle;fontFamily=Helvetica;fontSize=11;fontColor=default;endArrow=oval;endFill=1;" parent="K28dcVF4U-_2Pks2xvg8-35" source="K28dcVF4U-_2Pks2xvg8-32" edge="1">
          <mxGeometry relative="1" as="geometry">
            <mxPoint x="-560" y="540" as="targetPoint" />
          </mxGeometry>
        </mxCell>
        <mxCell id="K28dcVF4U-_2Pks2xvg8-32" value="6" style="text;html=1;strokeColor=none;fillColor=none;align=center;verticalAlign=middle;whiteSpace=wrap;rounded=0;" parent="K28dcVF4U-_2Pks2xvg8-35" vertex="1">
          <mxGeometry y="568" width="20" height="60" as="geometry" />
        </mxCell>
        <mxCell id="K28dcVF4U-_2Pks2xvg8-33" value="7" style="text;html=1;strokeColor=none;fillColor=none;align=center;verticalAlign=middle;whiteSpace=wrap;rounded=0;" parent="K28dcVF4U-_2Pks2xvg8-35" vertex="1">
          <mxGeometry y="648" width="20" height="60" as="geometry" />
        </mxCell>
        <mxCell id="K28dcVF4U-_2Pks2xvg8-53" value="SEL" style="text;html=1;strokeColor=none;fillColor=none;align=center;verticalAlign=middle;whiteSpace=wrap;rounded=0;fontSize=11;fontFamily=Helvetica;fontColor=default;rotation=270;" parent="K28dcVF4U-_2Pks2xvg8-35" vertex="1">
          <mxGeometry x="30" y="105" width="60" height="30" as="geometry" />
        </mxCell>
        <mxCell id="K28dcVF4U-_2Pks2xvg8-36" value="" style="endArrow=none;html=1;rounded=0;entryX=1;entryY=0.5;entryDx=0;entryDy=0;" parent="1" target="K28dcVF4U-_2Pks2xvg8-2" edge="1">
          <mxGeometry width="50" height="50" relative="1" as="geometry">
            <mxPoint x="640" y="120" as="sourcePoint" />
            <mxPoint x="330" y="119.55" as="targetPoint" />
          </mxGeometry>
        </mxCell>
        <mxCell id="K28dcVF4U-_2Pks2xvg8-88" value="8" style="edgeLabel;html=1;align=center;verticalAlign=middle;resizable=0;points=[];fontSize=11;fontFamily=Helvetica;fontColor=default;" parent="K28dcVF4U-_2Pks2xvg8-36" vertex="1" connectable="0">
          <mxGeometry x="0.2255" relative="1" as="geometry">
            <mxPoint as="offset" />
          </mxGeometry>
        </mxCell>
        <mxCell id="K28dcVF4U-_2Pks2xvg8-65" style="edgeStyle=orthogonalEdgeStyle;shape=connector;rounded=0;orthogonalLoop=1;jettySize=auto;html=1;exitX=1;exitY=0.5;exitDx=0;exitDy=0;labelBackgroundColor=default;strokeColor=default;align=center;verticalAlign=middle;fontFamily=Helvetica;fontSize=11;fontColor=default;endArrow=none;endFill=0;" parent="1" source="K28dcVF4U-_2Pks2xvg8-41" edge="1">
          <mxGeometry relative="1" as="geometry">
            <mxPoint x="160" y="30" as="targetPoint" />
          </mxGeometry>
        </mxCell>
        <mxCell id="K28dcVF4U-_2Pks2xvg8-77" value="8" style="edgeLabel;html=1;align=center;verticalAlign=middle;resizable=0;points=[];fontSize=11;fontFamily=Helvetica;fontColor=default;" parent="K28dcVF4U-_2Pks2xvg8-65" vertex="1" connectable="0">
          <mxGeometry x="0.5319" y="2" relative="1" as="geometry">
            <mxPoint as="offset" />
          </mxGeometry>
        </mxCell>
        <mxCell id="K28dcVF4U-_2Pks2xvg8-41" value="OPA" style="triangle;whiteSpace=wrap;html=1;fontFamily=Helvetica;fontSize=11;fontColor=default;" parent="1" vertex="1">
          <mxGeometry x="-710" y="-60" width="30" height="40" as="geometry" />
        </mxCell>
        <mxCell id="K28dcVF4U-_2Pks2xvg8-43" value="OPB" style="triangle;whiteSpace=wrap;html=1;fontFamily=Helvetica;fontSize=11;fontColor=default;" parent="1" vertex="1">
          <mxGeometry x="-710" width="30" height="40" as="geometry" />
        </mxCell>
        <mxCell id="K28dcVF4U-_2Pks2xvg8-44" value="K" style="triangle;whiteSpace=wrap;html=1;fontFamily=Helvetica;fontSize=11;fontColor=default;" parent="1" vertex="1">
          <mxGeometry x="-710" y="60" width="30" height="40" as="geometry" />
        </mxCell>
        <mxCell id="K28dcVF4U-_2Pks2xvg8-49" style="edgeStyle=orthogonalEdgeStyle;shape=connector;rounded=0;orthogonalLoop=1;jettySize=auto;html=1;exitX=1;exitY=0.5;exitDx=0;exitDy=0;entryX=0;entryY=0.5;entryDx=0;entryDy=0;labelBackgroundColor=default;strokeColor=default;align=center;verticalAlign=middle;fontFamily=Helvetica;fontSize=11;fontColor=default;endArrow=none;endFill=0;" parent="1" source="K28dcVF4U-_2Pks2xvg8-45" target="K28dcVF4U-_2Pks2xvg8-46" edge="1">
          <mxGeometry relative="1" as="geometry" />
        </mxCell>
        <mxCell id="K28dcVF4U-_2Pks2xvg8-56" value="4" style="edgeLabel;html=1;align=center;verticalAlign=middle;resizable=0;points=[];fontSize=11;fontFamily=Helvetica;fontColor=default;" parent="K28dcVF4U-_2Pks2xvg8-49" vertex="1" connectable="0">
          <mxGeometry x="-0.0636" y="1" relative="1" as="geometry">
            <mxPoint x="-1" as="offset" />
          </mxGeometry>
        </mxCell>
        <mxCell id="K28dcVF4U-_2Pks2xvg8-45" value="OPCODE" style="triangle;whiteSpace=wrap;html=1;fontFamily=Helvetica;fontSize=11;fontColor=default;" parent="1" vertex="1">
          <mxGeometry x="-1260" y="-260" width="30" height="40" as="geometry" />
        </mxCell>
        <mxCell id="K28dcVF4U-_2Pks2xvg8-52" style="edgeStyle=orthogonalEdgeStyle;shape=connector;rounded=0;orthogonalLoop=1;jettySize=auto;html=1;exitX=1;exitY=0.5;exitDx=0;exitDy=0;labelBackgroundColor=default;strokeColor=default;align=center;verticalAlign=middle;fontFamily=Helvetica;fontSize=11;fontColor=default;endArrow=none;endFill=0;" parent="1" source="K28dcVF4U-_2Pks2xvg8-46" edge="1">
          <mxGeometry relative="1" as="geometry">
            <mxPoint x="700" as="targetPoint" />
          </mxGeometry>
        </mxCell>
        <mxCell id="K28dcVF4U-_2Pks2xvg8-55" value="3" style="edgeLabel;html=1;align=center;verticalAlign=middle;resizable=0;points=[];fontSize=11;fontFamily=Helvetica;fontColor=default;" parent="K28dcVF4U-_2Pks2xvg8-52" vertex="1" connectable="0">
          <mxGeometry x="-0.7557" relative="1" as="geometry">
            <mxPoint x="-1" as="offset" />
          </mxGeometry>
        </mxCell>
        <mxCell id="K28dcVF4U-_2Pks2xvg8-46" value="3:1" style="rounded=0;whiteSpace=wrap;html=1;fontFamily=Helvetica;fontSize=11;fontColor=default;" parent="1" vertex="1">
          <mxGeometry x="-920" y="-260" width="40" height="40" as="geometry" />
        </mxCell>
        <mxCell id="K28dcVF4U-_2Pks2xvg8-50" style="edgeStyle=orthogonalEdgeStyle;shape=connector;rounded=0;orthogonalLoop=1;jettySize=auto;html=1;exitX=0;exitY=0.5;exitDx=0;exitDy=0;labelBackgroundColor=default;strokeColor=default;align=center;verticalAlign=middle;fontFamily=Helvetica;fontSize=11;fontColor=default;endArrow=oval;endFill=1;" parent="1" source="K28dcVF4U-_2Pks2xvg8-48" edge="1">
          <mxGeometry relative="1" as="geometry">
            <mxPoint x="-980" y="-240" as="targetPoint" />
          </mxGeometry>
        </mxCell>
        <mxCell id="K28dcVF4U-_2Pks2xvg8-136" style="edgeStyle=orthogonalEdgeStyle;shape=connector;rounded=0;orthogonalLoop=1;jettySize=auto;html=1;exitX=1;exitY=0.5;exitDx=0;exitDy=0;labelBackgroundColor=default;strokeColor=default;align=center;verticalAlign=middle;fontFamily=Helvetica;fontSize=11;fontColor=default;endArrow=none;endFill=0;" parent="1" source="K28dcVF4U-_2Pks2xvg8-48" edge="1">
          <mxGeometry relative="1" as="geometry">
            <mxPoint x="-760" y="610" as="targetPoint" />
          </mxGeometry>
        </mxCell>
        <mxCell id="dH81x7TGgG7tPerTCJaM-39" value="1" style="edgeLabel;html=1;align=center;verticalAlign=middle;resizable=0;points=[];fontSize=11;fontFamily=Helvetica;fontColor=default;" vertex="1" connectable="0" parent="K28dcVF4U-_2Pks2xvg8-136">
          <mxGeometry x="-0.8487" relative="1" as="geometry">
            <mxPoint as="offset" />
          </mxGeometry>
        </mxCell>
        <mxCell id="K28dcVF4U-_2Pks2xvg8-48" value="0:0" style="rounded=0;whiteSpace=wrap;html=1;fontFamily=Helvetica;fontSize=11;fontColor=default;" parent="1" vertex="1">
          <mxGeometry x="-920" y="-180" width="40" height="40" as="geometry" />
        </mxCell>
        <mxCell id="K28dcVF4U-_2Pks2xvg8-59" style="edgeStyle=orthogonalEdgeStyle;shape=connector;rounded=0;orthogonalLoop=1;jettySize=auto;html=1;exitX=1;exitY=0.5;exitDx=0;exitDy=-5;exitPerimeter=0;labelBackgroundColor=default;strokeColor=default;align=center;verticalAlign=middle;fontFamily=Helvetica;fontSize=11;fontColor=default;endArrow=none;endFill=0;entryX=0.078;entryY=0.751;entryDx=0;entryDy=0;entryPerimeter=0;" parent="1" source="K28dcVF4U-_2Pks2xvg8-57" target="K28dcVF4U-_2Pks2xvg8-1" edge="1">
          <mxGeometry relative="1" as="geometry">
            <mxPoint x="-540" y="65" as="sourcePoint" />
            <mxPoint x="286" y="60" as="targetPoint" />
            <Array as="points">
              <mxPoint x="-530" y="50" />
            </Array>
          </mxGeometry>
        </mxCell>
        <mxCell id="K28dcVF4U-_2Pks2xvg8-71" style="edgeStyle=orthogonalEdgeStyle;shape=connector;rounded=0;orthogonalLoop=1;jettySize=auto;html=1;exitX=0.3;exitY=1;exitDx=10;exitDy=0;exitPerimeter=0;labelBackgroundColor=default;strokeColor=default;align=center;verticalAlign=middle;fontFamily=Helvetica;fontSize=11;fontColor=default;endArrow=oval;endFill=1;" parent="1" source="K28dcVF4U-_2Pks2xvg8-57" edge="1">
          <mxGeometry relative="1" as="geometry">
            <mxPoint x="-760" y="120" as="targetPoint" />
            <Array as="points">
              <mxPoint x="-565" y="120" />
            </Array>
          </mxGeometry>
        </mxCell>
        <mxCell id="K28dcVF4U-_2Pks2xvg8-57" value="Mux" style="shadow=0;dashed=0;align=center;html=1;strokeWidth=1;shape=mxgraph.electrical.abstract.mux2;whiteSpace=wrap;fontFamily=Helvetica;fontSize=11;fontColor=default;aspect=fixed;" parent="1" vertex="1">
          <mxGeometry x="-590" y="7" width="50" height="96" as="geometry" />
        </mxCell>
        <mxCell id="K28dcVF4U-_2Pks2xvg8-74" style="edgeStyle=orthogonalEdgeStyle;shape=connector;rounded=0;orthogonalLoop=1;jettySize=auto;html=1;labelBackgroundColor=default;strokeColor=default;align=center;verticalAlign=middle;fontFamily=Helvetica;fontSize=11;fontColor=default;endArrow=none;endFill=0;" parent="1" edge="1">
          <mxGeometry relative="1" as="geometry">
            <mxPoint x="240" y="134" as="targetPoint" />
            <mxPoint x="-200" y="170" as="sourcePoint" />
          </mxGeometry>
        </mxCell>
        <mxCell id="K28dcVF4U-_2Pks2xvg8-87" value="8" style="edgeLabel;html=1;align=center;verticalAlign=middle;resizable=0;points=[];fontSize=11;fontFamily=Helvetica;fontColor=default;" parent="K28dcVF4U-_2Pks2xvg8-74" vertex="1" connectable="0">
          <mxGeometry x="-0.5077" y="-1" relative="1" as="geometry">
            <mxPoint as="offset" />
          </mxGeometry>
        </mxCell>
        <mxCell id="K28dcVF4U-_2Pks2xvg8-84" style="edgeStyle=orthogonalEdgeStyle;shape=connector;rounded=0;orthogonalLoop=1;jettySize=auto;html=1;exitX=1;exitY=0.5;exitDx=0;exitDy=0;entryX=0;entryY=0.75;entryDx=0;entryDy=0;labelBackgroundColor=default;strokeColor=default;align=center;verticalAlign=middle;fontFamily=Helvetica;fontSize=11;fontColor=default;endArrow=none;endFill=0;" parent="1" source="K28dcVF4U-_2Pks2xvg8-73" target="K28dcVF4U-_2Pks2xvg8-81" edge="1">
          <mxGeometry relative="1" as="geometry">
            <Array as="points">
              <mxPoint x="-280" y="190" />
              <mxPoint x="-280" y="180" />
            </Array>
          </mxGeometry>
        </mxCell>
        <mxCell id="K28dcVF4U-_2Pks2xvg8-86" value="1" style="edgeLabel;html=1;align=center;verticalAlign=middle;resizable=0;points=[];fontSize=11;fontFamily=Helvetica;fontColor=default;" parent="K28dcVF4U-_2Pks2xvg8-84" vertex="1" connectable="0">
          <mxGeometry x="0.8051" y="1" relative="1" as="geometry">
            <mxPoint as="offset" />
          </mxGeometry>
        </mxCell>
        <mxCell id="K28dcVF4U-_2Pks2xvg8-73" value="CARRY" style="triangle;whiteSpace=wrap;html=1;fontFamily=Helvetica;fontSize=11;fontColor=default;" parent="1" vertex="1">
          <mxGeometry x="-410" y="170" width="30" height="40" as="geometry" />
        </mxCell>
        <mxCell id="K28dcVF4U-_2Pks2xvg8-82" style="edgeStyle=orthogonalEdgeStyle;shape=connector;rounded=0;orthogonalLoop=1;jettySize=auto;html=1;exitX=1;exitY=0.5;exitDx=0;exitDy=0;entryX=0;entryY=0.25;entryDx=0;entryDy=0;labelBackgroundColor=default;strokeColor=default;align=center;verticalAlign=middle;fontFamily=Helvetica;fontSize=11;fontColor=default;endArrow=none;endFill=0;" parent="1" source="K28dcVF4U-_2Pks2xvg8-80" target="K28dcVF4U-_2Pks2xvg8-81" edge="1">
          <mxGeometry relative="1" as="geometry" />
        </mxCell>
        <mxCell id="K28dcVF4U-_2Pks2xvg8-83" value="7" style="edgeLabel;html=1;align=center;verticalAlign=middle;resizable=0;points=[];fontSize=11;fontFamily=Helvetica;fontColor=default;" parent="K28dcVF4U-_2Pks2xvg8-82" vertex="1" connectable="0">
          <mxGeometry x="0.2083" relative="1" as="geometry">
            <mxPoint as="offset" />
          </mxGeometry>
        </mxCell>
        <mxCell id="K28dcVF4U-_2Pks2xvg8-80" value="0" style="whiteSpace=wrap;html=1;aspect=fixed;fontFamily=Helvetica;fontSize=11;fontColor=default;" parent="1" vertex="1">
          <mxGeometry x="-360" y="140" width="40" height="40" as="geometry" />
        </mxCell>
        <mxCell id="K28dcVF4U-_2Pks2xvg8-81" value="7:0" style="rounded=0;whiteSpace=wrap;html=1;fontFamily=Helvetica;fontSize=11;fontColor=default;" parent="1" vertex="1">
          <mxGeometry x="-240" y="150" width="40" height="40" as="geometry" />
        </mxCell>
        <mxCell id="K28dcVF4U-_2Pks2xvg8-107" style="edgeStyle=orthogonalEdgeStyle;shape=connector;rounded=0;orthogonalLoop=1;jettySize=auto;html=1;labelBackgroundColor=default;strokeColor=default;align=center;verticalAlign=middle;fontFamily=Helvetica;fontSize=11;fontColor=default;endArrow=oval;endFill=1;" parent="1" edge="1">
          <mxGeometry relative="1" as="geometry">
            <mxPoint x="80" y="288" as="targetPoint" />
            <mxPoint x="300" y="380" as="sourcePoint" />
            <Array as="points">
              <mxPoint x="300" y="380" />
              <mxPoint x="80" y="380" />
            </Array>
          </mxGeometry>
        </mxCell>
        <mxCell id="K28dcVF4U-_2Pks2xvg8-108" style="edgeStyle=orthogonalEdgeStyle;shape=connector;rounded=0;orthogonalLoop=1;jettySize=auto;html=1;labelBackgroundColor=default;strokeColor=default;align=center;verticalAlign=middle;fontFamily=Helvetica;fontSize=11;fontColor=default;endArrow=oval;endFill=1;" parent="1" edge="1">
          <mxGeometry relative="1" as="geometry">
            <mxPoint x="120" y="260" as="targetPoint" />
            <mxPoint x="300" y="340" as="sourcePoint" />
            <Array as="points">
              <mxPoint x="300" y="340" />
              <mxPoint x="120" y="340" />
            </Array>
          </mxGeometry>
        </mxCell>
        <mxCell id="K28dcVF4U-_2Pks2xvg8-109" style="edgeStyle=orthogonalEdgeStyle;shape=connector;rounded=0;orthogonalLoop=1;jettySize=auto;html=1;exitX=-0.002;exitY=0.752;exitDx=0;exitDy=0;exitPerimeter=0;labelBackgroundColor=default;strokeColor=default;align=center;verticalAlign=middle;fontFamily=Helvetica;fontSize=11;fontColor=default;endArrow=oval;endFill=1;" parent="1" source="K28dcVF4U-_2Pks2xvg8-7" edge="1">
          <mxGeometry relative="1" as="geometry">
            <mxPoint x="80" y="368" as="targetPoint" />
            <mxPoint x="210" y="454" as="sourcePoint" />
            <Array as="points">
              <mxPoint x="80" y="460" />
            </Array>
          </mxGeometry>
        </mxCell>
        <mxCell id="K28dcVF4U-_2Pks2xvg8-110" style="edgeStyle=orthogonalEdgeStyle;shape=connector;rounded=0;orthogonalLoop=1;jettySize=auto;html=1;exitX=-0.019;exitY=0.247;exitDx=0;exitDy=0;exitPerimeter=0;labelBackgroundColor=default;strokeColor=default;align=center;verticalAlign=middle;fontFamily=Helvetica;fontSize=11;fontColor=default;endArrow=oval;endFill=1;" parent="1" source="K28dcVF4U-_2Pks2xvg8-7" edge="1">
          <mxGeometry relative="1" as="geometry">
            <mxPoint x="120" y="340" as="targetPoint" />
            <mxPoint x="210" y="414" as="sourcePoint" />
            <Array as="points">
              <mxPoint x="210" y="420" />
              <mxPoint x="120" y="420" />
            </Array>
          </mxGeometry>
        </mxCell>
        <mxCell id="K28dcVF4U-_2Pks2xvg8-122" style="edgeStyle=orthogonalEdgeStyle;shape=connector;rounded=0;orthogonalLoop=1;jettySize=auto;html=1;exitX=1;exitY=0.5;exitDx=0;exitDy=-5;exitPerimeter=0;entryX=0;entryY=0.25;entryDx=0;entryDy=0;labelBackgroundColor=default;strokeColor=default;align=center;verticalAlign=middle;fontFamily=Helvetica;fontSize=11;fontColor=default;endArrow=none;endFill=0;" parent="1" source="K28dcVF4U-_2Pks2xvg8-114" target="K28dcVF4U-_2Pks2xvg8-116" edge="1">
          <mxGeometry relative="1" as="geometry" />
        </mxCell>
        <mxCell id="K28dcVF4U-_2Pks2xvg8-128" value="1" style="edgeLabel;html=1;align=center;verticalAlign=middle;resizable=0;points=[];fontSize=11;fontFamily=Helvetica;fontColor=default;" parent="K28dcVF4U-_2Pks2xvg8-122" vertex="1" connectable="0">
          <mxGeometry x="-0.8356" y="-2" relative="1" as="geometry">
            <mxPoint as="offset" />
          </mxGeometry>
        </mxCell>
        <mxCell id="K28dcVF4U-_2Pks2xvg8-135" style="edgeStyle=orthogonalEdgeStyle;shape=connector;rounded=0;orthogonalLoop=1;jettySize=auto;html=1;exitX=0.3;exitY=1;exitDx=10;exitDy=0;exitPerimeter=0;labelBackgroundColor=default;strokeColor=default;align=center;verticalAlign=middle;fontFamily=Helvetica;fontSize=11;fontColor=default;endArrow=none;endFill=0;" parent="1" source="K28dcVF4U-_2Pks2xvg8-114" edge="1">
          <mxGeometry relative="1" as="geometry">
            <mxPoint x="-760" y="610" as="targetPoint" />
            <Array as="points">
              <mxPoint x="35" y="610" />
              <mxPoint x="-760" y="610" />
            </Array>
          </mxGeometry>
        </mxCell>
        <mxCell id="K28dcVF4U-_2Pks2xvg8-114" value="Mux" style="shadow=0;dashed=0;align=center;html=1;strokeWidth=1;shape=mxgraph.electrical.abstract.mux2;whiteSpace=wrap;fontFamily=Helvetica;fontSize=11;fontColor=default;aspect=fixed;" parent="1" vertex="1">
          <mxGeometry x="10" y="517" width="50" height="96" as="geometry" />
        </mxCell>
        <mxCell id="K28dcVF4U-_2Pks2xvg8-121" style="edgeStyle=orthogonalEdgeStyle;shape=connector;rounded=0;orthogonalLoop=1;jettySize=auto;html=1;exitX=1;exitY=0.5;exitDx=0;exitDy=0;entryX=0;entryY=0.75;entryDx=0;entryDy=0;labelBackgroundColor=default;strokeColor=default;align=center;verticalAlign=middle;fontFamily=Helvetica;fontSize=11;fontColor=default;endArrow=none;endFill=0;" parent="1" source="K28dcVF4U-_2Pks2xvg8-115" target="K28dcVF4U-_2Pks2xvg8-116" edge="1">
          <mxGeometry relative="1" as="geometry" />
        </mxCell>
        <mxCell id="K28dcVF4U-_2Pks2xvg8-130" value="7" style="edgeLabel;html=1;align=center;verticalAlign=middle;resizable=0;points=[];fontSize=11;fontFamily=Helvetica;fontColor=default;" parent="K28dcVF4U-_2Pks2xvg8-121" vertex="1" connectable="0">
          <mxGeometry x="-0.5198" y="-1" relative="1" as="geometry">
            <mxPoint as="offset" />
          </mxGeometry>
        </mxCell>
        <mxCell id="K28dcVF4U-_2Pks2xvg8-115" value="SHIFT R" style="whiteSpace=wrap;html=1;aspect=fixed;fontFamily=Helvetica;fontSize=11;fontColor=default;" parent="1" vertex="1">
          <mxGeometry x="160" y="620" width="40" height="40" as="geometry" />
        </mxCell>
        <mxCell id="K28dcVF4U-_2Pks2xvg8-116" value="7:0" style="whiteSpace=wrap;html=1;aspect=fixed;fontFamily=Helvetica;fontSize=11;fontColor=default;" parent="1" vertex="1">
          <mxGeometry x="360" y="580" width="40" height="40" as="geometry" />
        </mxCell>
        <mxCell id="K28dcVF4U-_2Pks2xvg8-134" style="edgeStyle=orthogonalEdgeStyle;shape=connector;rounded=0;orthogonalLoop=1;jettySize=auto;html=1;exitX=0;exitY=0.5;exitDx=0;exitDy=0;labelBackgroundColor=default;strokeColor=default;align=center;verticalAlign=middle;fontFamily=Helvetica;fontSize=11;fontColor=default;endArrow=oval;endFill=1;" parent="1" source="K28dcVF4U-_2Pks2xvg8-117" edge="1">
          <mxGeometry relative="1" as="geometry">
            <mxPoint x="-160" y="540" as="targetPoint" />
          </mxGeometry>
        </mxCell>
        <mxCell id="K28dcVF4U-_2Pks2xvg8-117" value="6:0" style="whiteSpace=wrap;html=1;aspect=fixed;fontFamily=Helvetica;fontSize=11;fontColor=default;" parent="1" vertex="1">
          <mxGeometry x="-130" y="620" width="40" height="40" as="geometry" />
        </mxCell>
        <mxCell id="K28dcVF4U-_2Pks2xvg8-133" style="edgeStyle=orthogonalEdgeStyle;shape=connector;rounded=0;orthogonalLoop=1;jettySize=auto;html=1;exitX=0;exitY=0.5;exitDx=0;exitDy=0;labelBackgroundColor=default;strokeColor=default;align=center;verticalAlign=middle;fontFamily=Helvetica;fontSize=11;fontColor=default;endArrow=oval;endFill=1;" parent="1" source="K28dcVF4U-_2Pks2xvg8-118" edge="1">
          <mxGeometry relative="1" as="geometry">
            <mxPoint x="120" y="420" as="targetPoint" />
            <Array as="points">
              <mxPoint x="-160" y="540" />
              <mxPoint x="-160" y="420" />
            </Array>
          </mxGeometry>
        </mxCell>
        <mxCell id="K28dcVF4U-_2Pks2xvg8-118" value="7:7" style="whiteSpace=wrap;html=1;aspect=fixed;fontFamily=Helvetica;fontSize=11;fontColor=default;" parent="1" vertex="1">
          <mxGeometry x="-130" y="520" width="40" height="40" as="geometry" />
        </mxCell>
        <mxCell id="K28dcVF4U-_2Pks2xvg8-119" style="edgeStyle=orthogonalEdgeStyle;shape=connector;rounded=0;orthogonalLoop=1;jettySize=auto;html=1;exitX=1;exitY=0.5;exitDx=0;exitDy=0;entryX=-0.089;entryY=0.504;entryDx=0;entryDy=0;entryPerimeter=0;labelBackgroundColor=default;strokeColor=default;align=center;verticalAlign=middle;fontFamily=Helvetica;fontSize=11;fontColor=default;endArrow=none;endFill=0;" parent="1" source="K28dcVF4U-_2Pks2xvg8-117" target="K28dcVF4U-_2Pks2xvg8-115" edge="1">
          <mxGeometry relative="1" as="geometry" />
        </mxCell>
        <mxCell id="K28dcVF4U-_2Pks2xvg8-129" value="7" style="edgeLabel;html=1;align=center;verticalAlign=middle;resizable=0;points=[];fontSize=11;fontFamily=Helvetica;fontColor=default;" parent="K28dcVF4U-_2Pks2xvg8-119" vertex="1" connectable="0">
          <mxGeometry x="0.3185" relative="1" as="geometry">
            <mxPoint as="offset" />
          </mxGeometry>
        </mxCell>
        <mxCell id="K28dcVF4U-_2Pks2xvg8-123" style="edgeStyle=orthogonalEdgeStyle;shape=connector;rounded=0;orthogonalLoop=1;jettySize=auto;html=1;exitX=1;exitY=0.5;exitDx=0;exitDy=0;entryX=0;entryY=0.20833333333333334;entryDx=0;entryDy=3;entryPerimeter=0;labelBackgroundColor=default;strokeColor=default;align=center;verticalAlign=middle;fontFamily=Helvetica;fontSize=11;fontColor=default;endArrow=none;endFill=0;" parent="1" source="K28dcVF4U-_2Pks2xvg8-118" target="K28dcVF4U-_2Pks2xvg8-114" edge="1">
          <mxGeometry relative="1" as="geometry" />
        </mxCell>
        <mxCell id="K28dcVF4U-_2Pks2xvg8-126" value="1" style="edgeLabel;html=1;align=center;verticalAlign=middle;resizable=0;points=[];fontSize=11;fontFamily=Helvetica;fontColor=default;" parent="K28dcVF4U-_2Pks2xvg8-123" vertex="1" connectable="0">
          <mxGeometry x="0.5824" relative="1" as="geometry">
            <mxPoint as="offset" />
          </mxGeometry>
        </mxCell>
        <mxCell id="K28dcVF4U-_2Pks2xvg8-124" value="0" style="whiteSpace=wrap;html=1;aspect=fixed;fontFamily=Helvetica;fontSize=11;fontColor=default;" parent="1" vertex="1">
          <mxGeometry x="-60" y="560" width="40" height="40" as="geometry" />
        </mxCell>
        <mxCell id="K28dcVF4U-_2Pks2xvg8-125" style="edgeStyle=orthogonalEdgeStyle;shape=connector;rounded=0;orthogonalLoop=1;jettySize=auto;html=1;exitX=1;exitY=0.5;exitDx=0;exitDy=0;entryX=0;entryY=0.625;entryDx=0;entryDy=3;entryPerimeter=0;labelBackgroundColor=default;strokeColor=default;align=center;verticalAlign=middle;fontFamily=Helvetica;fontSize=11;fontColor=default;endArrow=none;endFill=0;" parent="1" source="K28dcVF4U-_2Pks2xvg8-124" target="K28dcVF4U-_2Pks2xvg8-114" edge="1">
          <mxGeometry relative="1" as="geometry" />
        </mxCell>
        <mxCell id="K28dcVF4U-_2Pks2xvg8-127" value="1" style="edgeLabel;html=1;align=center;verticalAlign=middle;resizable=0;points=[];fontSize=11;fontFamily=Helvetica;fontColor=default;" parent="K28dcVF4U-_2Pks2xvg8-125" vertex="1" connectable="0">
          <mxGeometry x="0.3811" y="1" relative="1" as="geometry">
            <mxPoint as="offset" />
          </mxGeometry>
        </mxCell>
        <mxCell id="K28dcVF4U-_2Pks2xvg8-131" style="edgeStyle=orthogonalEdgeStyle;shape=connector;rounded=0;orthogonalLoop=1;jettySize=auto;html=1;exitX=1;exitY=0.5;exitDx=0;exitDy=0;entryX=0.06;entryY=0.54;entryDx=0;entryDy=0;entryPerimeter=0;labelBackgroundColor=default;strokeColor=default;align=center;verticalAlign=middle;fontFamily=Helvetica;fontSize=11;fontColor=default;endArrow=none;endFill=0;" parent="1" source="K28dcVF4U-_2Pks2xvg8-116" target="K28dcVF4U-_2Pks2xvg8-33" edge="1">
          <mxGeometry relative="1" as="geometry">
            <Array as="points">
              <mxPoint x="638" y="600" />
            </Array>
          </mxGeometry>
        </mxCell>
        <mxCell id="dH81x7TGgG7tPerTCJaM-9" style="edgeStyle=orthogonalEdgeStyle;shape=connector;rounded=0;orthogonalLoop=1;jettySize=auto;html=1;exitX=1;exitY=0.5;exitDx=0;exitDy=0;exitPerimeter=0;labelBackgroundColor=default;strokeColor=default;align=center;verticalAlign=middle;fontFamily=Helvetica;fontSize=11;fontColor=default;endArrow=none;endFill=0;entryX=0.003;entryY=0.166;entryDx=0;entryDy=0;entryPerimeter=0;" edge="1" parent="1" source="K28dcVF4U-_2Pks2xvg8-173" target="dH81x7TGgG7tPerTCJaM-6">
          <mxGeometry relative="1" as="geometry">
            <mxPoint x="-60" y="1020.52" as="targetPoint" />
          </mxGeometry>
        </mxCell>
        <mxCell id="dH81x7TGgG7tPerTCJaM-13" style="edgeStyle=orthogonalEdgeStyle;shape=connector;rounded=0;orthogonalLoop=1;jettySize=auto;html=1;exitX=0;exitY=0.5;exitDx=0;exitDy=0;labelBackgroundColor=default;strokeColor=default;align=center;verticalAlign=middle;fontFamily=Helvetica;fontSize=11;fontColor=default;endArrow=oval;endFill=1;" edge="1" parent="1">
          <mxGeometry relative="1" as="geometry">
            <mxPoint x="-640" y="-40.26" as="targetPoint" />
            <mxPoint x="-600" y="920.26" as="sourcePoint" />
            <Array as="points">
              <mxPoint x="-640" y="920" />
            </Array>
          </mxGeometry>
        </mxCell>
        <mxCell id="dH81x7TGgG7tPerTCJaM-27" value="OPA" style="edgeLabel;html=1;align=center;verticalAlign=middle;resizable=0;points=[];fontSize=11;fontFamily=Helvetica;fontColor=default;" vertex="1" connectable="0" parent="dH81x7TGgG7tPerTCJaM-13">
          <mxGeometry x="-0.9263" y="-1" relative="1" as="geometry">
            <mxPoint x="17" as="offset" />
          </mxGeometry>
        </mxCell>
        <mxCell id="dH81x7TGgG7tPerTCJaM-28" value="8" style="edgeLabel;html=1;align=center;verticalAlign=middle;resizable=0;points=[];fontSize=11;fontFamily=Helvetica;fontColor=default;" vertex="1" connectable="0" parent="dH81x7TGgG7tPerTCJaM-13">
          <mxGeometry x="-0.814" relative="1" as="geometry">
            <mxPoint as="offset" />
          </mxGeometry>
        </mxCell>
        <mxCell id="dH81x7TGgG7tPerTCJaM-14" style="edgeStyle=orthogonalEdgeStyle;shape=connector;rounded=0;orthogonalLoop=1;jettySize=auto;html=1;exitX=0;exitY=0.5;exitDx=0;exitDy=0;labelBackgroundColor=default;strokeColor=default;align=center;verticalAlign=middle;fontFamily=Helvetica;fontSize=11;fontColor=default;endArrow=oval;endFill=1;" edge="1" parent="1" source="dH81x7TGgG7tPerTCJaM-17">
          <mxGeometry relative="1" as="geometry">
            <mxPoint x="-520" y="50" as="targetPoint" />
          </mxGeometry>
        </mxCell>
        <mxCell id="dH81x7TGgG7tPerTCJaM-25" value="OPB/K" style="edgeLabel;html=1;align=center;verticalAlign=middle;resizable=0;points=[];fontSize=11;fontFamily=Helvetica;fontColor=default;" vertex="1" connectable="0" parent="dH81x7TGgG7tPerTCJaM-14">
          <mxGeometry x="-0.8447" relative="1" as="geometry">
            <mxPoint y="32" as="offset" />
          </mxGeometry>
        </mxCell>
        <mxCell id="dH81x7TGgG7tPerTCJaM-26" value="8" style="edgeLabel;html=1;align=center;verticalAlign=middle;resizable=0;points=[];fontSize=11;fontFamily=Helvetica;fontColor=default;" vertex="1" connectable="0" parent="dH81x7TGgG7tPerTCJaM-14">
          <mxGeometry x="-0.7562" y="1" relative="1" as="geometry">
            <mxPoint as="offset" />
          </mxGeometry>
        </mxCell>
        <mxCell id="K28dcVF4U-_2Pks2xvg8-173" value="and" style="verticalLabelPosition=bottom;shadow=0;dashed=0;align=center;html=1;verticalAlign=top;shape=mxgraph.electrical.iec_logic_gates.and;" parent="1" vertex="1">
          <mxGeometry x="-100" y="900.52" width="60" height="80" as="geometry" />
        </mxCell>
        <mxCell id="dH81x7TGgG7tPerTCJaM-33" style="edgeStyle=orthogonalEdgeStyle;shape=connector;rounded=0;orthogonalLoop=1;jettySize=auto;html=1;labelBackgroundColor=default;strokeColor=default;align=center;verticalAlign=middle;fontFamily=Helvetica;fontSize=11;fontColor=default;endArrow=oval;endFill=1;exitX=-0.005;exitY=0.251;exitDx=0;exitDy=0;exitPerimeter=0;" edge="1" parent="1" source="K28dcVF4U-_2Pks2xvg8-174">
          <mxGeometry relative="1" as="geometry">
            <mxPoint x="-280" y="960.52" as="targetPoint" />
            <mxPoint x="-230" y="1040.52" as="sourcePoint" />
            <Array as="points">
              <mxPoint x="-280" y="1041" />
            </Array>
          </mxGeometry>
        </mxCell>
        <mxCell id="dH81x7TGgG7tPerTCJaM-81" value="OPB/K (7)" style="edgeLabel;html=1;align=center;verticalAlign=middle;resizable=0;points=[];fontSize=11;fontFamily=Helvetica;fontColor=default;" vertex="1" connectable="0" parent="dH81x7TGgG7tPerTCJaM-33">
          <mxGeometry x="-0.5206" y="2" relative="1" as="geometry">
            <mxPoint x="2" as="offset" />
          </mxGeometry>
        </mxCell>
        <mxCell id="K28dcVF4U-_2Pks2xvg8-174" value="and" style="verticalLabelPosition=bottom;shadow=0;dashed=0;align=center;html=1;verticalAlign=top;shape=mxgraph.electrical.iec_logic_gates.and;" parent="1" vertex="1">
          <mxGeometry x="-100" y="1020.52" width="60" height="80" as="geometry" />
        </mxCell>
        <mxCell id="dH81x7TGgG7tPerTCJaM-34" style="edgeStyle=orthogonalEdgeStyle;shape=connector;rounded=0;orthogonalLoop=1;jettySize=auto;html=1;exitX=-0.004;exitY=0.251;exitDx=0;exitDy=0;exitPerimeter=0;labelBackgroundColor=default;strokeColor=default;align=center;verticalAlign=middle;fontFamily=Helvetica;fontSize=11;fontColor=default;endArrow=oval;endFill=1;" edge="1" parent="1">
          <mxGeometry relative="1" as="geometry">
            <mxPoint x="-240" y="920" as="targetPoint" />
            <mxPoint x="-99.99999999999979" y="1160.6" as="sourcePoint" />
            <Array as="points">
              <mxPoint x="-240" y="1161" />
            </Array>
          </mxGeometry>
        </mxCell>
        <mxCell id="dH81x7TGgG7tPerTCJaM-79" value="OPA (7)" style="edgeLabel;html=1;align=center;verticalAlign=middle;resizable=0;points=[];fontSize=11;fontFamily=Helvetica;fontColor=default;" vertex="1" connectable="0" parent="dH81x7TGgG7tPerTCJaM-34">
          <mxGeometry x="-0.7252" y="1" relative="1" as="geometry">
            <mxPoint x="-8" as="offset" />
          </mxGeometry>
        </mxCell>
        <mxCell id="K28dcVF4U-_2Pks2xvg8-175" value="and" style="verticalLabelPosition=bottom;shadow=0;dashed=0;align=center;html=1;verticalAlign=top;shape=mxgraph.electrical.iec_logic_gates.and;" parent="1" vertex="1">
          <mxGeometry x="-100" y="1140.52" width="60" height="80" as="geometry" />
        </mxCell>
        <mxCell id="dH81x7TGgG7tPerTCJaM-1" value="" style="group" vertex="1" connectable="0" parent="1">
          <mxGeometry x="240" y="1240" width="120" height="400" as="geometry" />
        </mxCell>
        <mxCell id="K28dcVF4U-_2Pks2xvg8-158" value="" style="endArrow=none;html=1;rounded=0;" parent="dH81x7TGgG7tPerTCJaM-1" edge="1">
          <mxGeometry width="50" height="50" relative="1" as="geometry">
            <mxPoint y="400" as="sourcePoint" />
            <mxPoint as="targetPoint" />
          </mxGeometry>
        </mxCell>
        <mxCell id="K28dcVF4U-_2Pks2xvg8-159" value="" style="endArrow=none;html=1;rounded=0;" parent="dH81x7TGgG7tPerTCJaM-1" edge="1">
          <mxGeometry width="50" height="50" relative="1" as="geometry">
            <mxPoint x="80" y="320" as="sourcePoint" />
            <mxPoint y="400" as="targetPoint" />
          </mxGeometry>
        </mxCell>
        <mxCell id="K28dcVF4U-_2Pks2xvg8-160" value="" style="endArrow=none;html=1;rounded=0;" parent="dH81x7TGgG7tPerTCJaM-1" edge="1">
          <mxGeometry width="50" height="50" relative="1" as="geometry">
            <mxPoint x="80" y="80" as="sourcePoint" />
            <mxPoint as="targetPoint" />
          </mxGeometry>
        </mxCell>
        <mxCell id="K28dcVF4U-_2Pks2xvg8-161" value="" style="endArrow=none;html=1;rounded=0;" parent="dH81x7TGgG7tPerTCJaM-1" edge="1">
          <mxGeometry width="50" height="50" relative="1" as="geometry">
            <mxPoint x="80" y="320" as="sourcePoint" />
            <mxPoint x="80" y="80" as="targetPoint" />
          </mxGeometry>
        </mxCell>
        <mxCell id="K28dcVF4U-_2Pks2xvg8-162" value="" style="endArrow=none;html=1;rounded=0;" parent="dH81x7TGgG7tPerTCJaM-1" edge="1">
          <mxGeometry width="50" height="50" relative="1" as="geometry">
            <mxPoint x="120" y="200" as="sourcePoint" />
            <mxPoint x="80" y="200" as="targetPoint" />
          </mxGeometry>
        </mxCell>
        <mxCell id="K28dcVF4U-_2Pks2xvg8-163" value="0" style="text;html=1;strokeColor=none;fillColor=none;align=center;verticalAlign=middle;whiteSpace=wrap;rounded=0;" parent="dH81x7TGgG7tPerTCJaM-1" vertex="1">
          <mxGeometry y="50" width="20" height="60" as="geometry" />
        </mxCell>
        <mxCell id="K28dcVF4U-_2Pks2xvg8-164" value="1" style="text;html=1;strokeColor=none;fillColor=none;align=center;verticalAlign=middle;whiteSpace=wrap;rounded=0;" parent="dH81x7TGgG7tPerTCJaM-1" vertex="1">
          <mxGeometry y="128" width="20" height="60" as="geometry" />
        </mxCell>
        <mxCell id="K28dcVF4U-_2Pks2xvg8-165" value="2" style="text;html=1;strokeColor=none;fillColor=none;align=center;verticalAlign=middle;whiteSpace=wrap;rounded=0;" parent="dH81x7TGgG7tPerTCJaM-1" vertex="1">
          <mxGeometry y="210" width="20" height="60" as="geometry" />
        </mxCell>
        <mxCell id="K28dcVF4U-_2Pks2xvg8-166" value="3" style="text;html=1;strokeColor=none;fillColor=none;align=center;verticalAlign=middle;whiteSpace=wrap;rounded=0;" parent="dH81x7TGgG7tPerTCJaM-1" vertex="1">
          <mxGeometry y="288" width="20" height="60" as="geometry" />
        </mxCell>
        <mxCell id="K28dcVF4U-_2Pks2xvg8-172" value="SEL" style="text;html=1;strokeColor=none;fillColor=none;align=center;verticalAlign=middle;whiteSpace=wrap;rounded=0;fontSize=11;fontFamily=Helvetica;fontColor=default;rotation=270;" parent="dH81x7TGgG7tPerTCJaM-1" vertex="1">
          <mxGeometry x="15" y="50" width="50" height="30" as="geometry" />
        </mxCell>
        <mxCell id="dH81x7TGgG7tPerTCJaM-4" style="edgeStyle=orthogonalEdgeStyle;rounded=0;orthogonalLoop=1;jettySize=auto;html=1;exitX=0;exitY=0.5;exitDx=0;exitDy=0;endArrow=oval;endFill=1;" edge="1" parent="1" source="dH81x7TGgG7tPerTCJaM-3">
          <mxGeometry relative="1" as="geometry">
            <mxPoint x="-980" y="-160" as="targetPoint" />
          </mxGeometry>
        </mxCell>
        <mxCell id="dH81x7TGgG7tPerTCJaM-5" style="edgeStyle=orthogonalEdgeStyle;rounded=0;orthogonalLoop=1;jettySize=auto;html=1;exitX=1;exitY=0.5;exitDx=0;exitDy=0;endArrow=none;endFill=0;" edge="1" parent="1" source="dH81x7TGgG7tPerTCJaM-3" target="K28dcVF4U-_2Pks2xvg8-172">
          <mxGeometry relative="1" as="geometry" />
        </mxCell>
        <mxCell id="dH81x7TGgG7tPerTCJaM-3" value="3:2" style="rounded=0;whiteSpace=wrap;html=1;fontFamily=Helvetica;fontSize=11;fontColor=default;" vertex="1" parent="1">
          <mxGeometry x="-900" y="820" width="40" height="40" as="geometry" />
        </mxCell>
        <mxCell id="dH81x7TGgG7tPerTCJaM-11" style="edgeStyle=orthogonalEdgeStyle;shape=connector;rounded=0;orthogonalLoop=1;jettySize=auto;html=1;exitX=1;exitY=0.5;exitDx=0;exitDy=0;exitPerimeter=0;entryX=0;entryY=0.5;entryDx=0;entryDy=0;labelBackgroundColor=default;strokeColor=default;align=center;verticalAlign=middle;fontFamily=Helvetica;fontSize=11;fontColor=default;endArrow=none;endFill=0;" edge="1" parent="1" source="dH81x7TGgG7tPerTCJaM-6" target="K28dcVF4U-_2Pks2xvg8-163">
          <mxGeometry relative="1" as="geometry" />
        </mxCell>
        <mxCell id="dH81x7TGgG7tPerTCJaM-6" value="or" style="verticalLabelPosition=bottom;shadow=0;dashed=0;align=center;html=1;verticalAlign=top;shape=mxgraph.electrical.iec_logic_gates.or;" vertex="1" parent="1">
          <mxGeometry x="20" y="1000.52" width="60" height="120" as="geometry" />
        </mxCell>
        <mxCell id="dH81x7TGgG7tPerTCJaM-8" style="edgeStyle=orthogonalEdgeStyle;shape=connector;rounded=0;orthogonalLoop=1;jettySize=auto;html=1;exitX=1;exitY=0.5;exitDx=0;exitDy=0;exitPerimeter=0;entryX=0;entryY=0.5;entryDx=0;entryDy=0;entryPerimeter=0;labelBackgroundColor=default;strokeColor=default;align=center;verticalAlign=middle;fontFamily=Helvetica;fontSize=11;fontColor=default;endArrow=none;endFill=0;" edge="1" parent="1" source="K28dcVF4U-_2Pks2xvg8-174" target="dH81x7TGgG7tPerTCJaM-6">
          <mxGeometry relative="1" as="geometry" />
        </mxCell>
        <mxCell id="dH81x7TGgG7tPerTCJaM-10" style="edgeStyle=orthogonalEdgeStyle;shape=connector;rounded=0;orthogonalLoop=1;jettySize=auto;html=1;exitX=1;exitY=0.5;exitDx=0;exitDy=0;exitPerimeter=0;entryX=-0.007;entryY=0.833;entryDx=0;entryDy=0;entryPerimeter=0;labelBackgroundColor=default;strokeColor=default;align=center;verticalAlign=middle;fontFamily=Helvetica;fontSize=11;fontColor=default;endArrow=none;endFill=0;" edge="1" parent="1" source="K28dcVF4U-_2Pks2xvg8-175" target="dH81x7TGgG7tPerTCJaM-6">
          <mxGeometry relative="1" as="geometry" />
        </mxCell>
        <mxCell id="dH81x7TGgG7tPerTCJaM-16" value="" style="edgeStyle=orthogonalEdgeStyle;shape=connector;rounded=0;orthogonalLoop=1;jettySize=auto;html=1;exitX=0.005;exitY=0.249;exitDx=0;exitDy=0;exitPerimeter=0;labelBackgroundColor=default;strokeColor=default;align=center;verticalAlign=middle;fontFamily=Helvetica;fontSize=11;fontColor=default;endArrow=none;endFill=0;" edge="1" parent="1" source="K28dcVF4U-_2Pks2xvg8-173" target="dH81x7TGgG7tPerTCJaM-15">
          <mxGeometry relative="1" as="geometry">
            <mxPoint x="-640" y="-139.48000000000002" as="targetPoint" />
            <mxPoint x="-440" y="920.52" as="sourcePoint" />
          </mxGeometry>
        </mxCell>
        <mxCell id="dH81x7TGgG7tPerTCJaM-29" value="1" style="edgeLabel;html=1;align=center;verticalAlign=middle;resizable=0;points=[];fontSize=11;fontFamily=Helvetica;fontColor=default;" vertex="1" connectable="0" parent="dH81x7TGgG7tPerTCJaM-16">
          <mxGeometry x="0.1435" y="1" relative="1" as="geometry">
            <mxPoint as="offset" />
          </mxGeometry>
        </mxCell>
        <mxCell id="dH81x7TGgG7tPerTCJaM-83" value="OPA (7)" style="edgeLabel;html=1;align=center;verticalAlign=middle;resizable=0;points=[];fontSize=11;fontFamily=Helvetica;fontColor=default;" vertex="1" connectable="0" parent="dH81x7TGgG7tPerTCJaM-16">
          <mxGeometry x="-0.748" relative="1" as="geometry">
            <mxPoint as="offset" />
          </mxGeometry>
        </mxCell>
        <mxCell id="dH81x7TGgG7tPerTCJaM-15" value="7:7" style="whiteSpace=wrap;html=1;aspect=fixed;fontFamily=Helvetica;fontSize=11;fontColor=default;" vertex="1" parent="1">
          <mxGeometry x="-600" y="900.52" width="40" height="40" as="geometry" />
        </mxCell>
        <mxCell id="dH81x7TGgG7tPerTCJaM-17" value="7:7" style="whiteSpace=wrap;html=1;aspect=fixed;fontFamily=Helvetica;fontSize=11;fontColor=default;" vertex="1" parent="1">
          <mxGeometry x="-480" y="940.52" width="40" height="40" as="geometry" />
        </mxCell>
        <mxCell id="dH81x7TGgG7tPerTCJaM-18" style="edgeStyle=orthogonalEdgeStyle;shape=connector;rounded=0;orthogonalLoop=1;jettySize=auto;html=1;exitX=1;exitY=0.5;exitDx=0;exitDy=0;labelBackgroundColor=default;strokeColor=default;align=center;verticalAlign=middle;fontFamily=Helvetica;fontSize=11;fontColor=default;endArrow=none;endFill=0;entryX=0.001;entryY=0.751;entryDx=0;entryDy=0;entryPerimeter=0;" edge="1" parent="1" source="dH81x7TGgG7tPerTCJaM-17" target="K28dcVF4U-_2Pks2xvg8-173">
          <mxGeometry relative="1" as="geometry">
            <mxPoint x="-450" y="960.52" as="targetPoint" />
          </mxGeometry>
        </mxCell>
        <mxCell id="dH81x7TGgG7tPerTCJaM-31" value="1" style="edgeLabel;html=1;align=center;verticalAlign=middle;resizable=0;points=[];fontSize=11;fontFamily=Helvetica;fontColor=default;" vertex="1" connectable="0" parent="dH81x7TGgG7tPerTCJaM-18">
          <mxGeometry x="-0.4184" y="1" relative="1" as="geometry">
            <mxPoint as="offset" />
          </mxGeometry>
        </mxCell>
        <mxCell id="dH81x7TGgG7tPerTCJaM-82" value="OPB/K (7)" style="edgeLabel;html=1;align=center;verticalAlign=middle;resizable=0;points=[];fontSize=11;fontFamily=Helvetica;fontColor=default;" vertex="1" connectable="0" parent="dH81x7TGgG7tPerTCJaM-18">
          <mxGeometry x="0.6159" relative="1" as="geometry">
            <mxPoint x="6" as="offset" />
          </mxGeometry>
        </mxCell>
        <mxCell id="dH81x7TGgG7tPerTCJaM-20" style="edgeStyle=orthogonalEdgeStyle;shape=connector;rounded=0;orthogonalLoop=1;jettySize=auto;html=1;exitX=0;exitY=0.5;exitDx=0;exitDy=0;labelBackgroundColor=default;strokeColor=default;align=center;verticalAlign=middle;fontFamily=Helvetica;fontSize=11;fontColor=default;endArrow=none;endFill=0;" edge="1" parent="1" source="dH81x7TGgG7tPerTCJaM-19">
          <mxGeometry relative="1" as="geometry">
            <mxPoint x="800" y="320.3333333333335" as="targetPoint" />
          </mxGeometry>
        </mxCell>
        <mxCell id="dH81x7TGgG7tPerTCJaM-19" value="ERG" style="triangle;whiteSpace=wrap;html=1;fontFamily=Helvetica;fontSize=11;fontColor=default;" vertex="1" parent="1">
          <mxGeometry x="1680" y="280" width="60" height="80" as="geometry" />
        </mxCell>
        <mxCell id="dH81x7TGgG7tPerTCJaM-22" style="edgeStyle=orthogonalEdgeStyle;shape=connector;rounded=0;orthogonalLoop=1;jettySize=auto;html=1;exitX=0;exitY=0.5;exitDx=0;exitDy=0;labelBackgroundColor=default;strokeColor=default;align=center;verticalAlign=middle;fontFamily=Helvetica;fontSize=11;fontColor=default;endArrow=oval;endFill=1;" edge="1" parent="1" source="dH81x7TGgG7tPerTCJaM-21">
          <mxGeometry relative="1" as="geometry">
            <mxPoint x="920" y="320" as="targetPoint" />
            <Array as="points">
              <mxPoint x="-400" y="1081" />
              <mxPoint x="-400" y="760" />
              <mxPoint x="921" y="760" />
              <mxPoint x="921" y="320" />
            </Array>
          </mxGeometry>
        </mxCell>
        <mxCell id="dH81x7TGgG7tPerTCJaM-23" value="ERG" style="edgeLabel;html=1;align=center;verticalAlign=middle;resizable=0;points=[];fontSize=11;fontFamily=Helvetica;fontColor=default;" vertex="1" connectable="0" parent="dH81x7TGgG7tPerTCJaM-22">
          <mxGeometry x="-0.9502" y="1" relative="1" as="geometry">
            <mxPoint as="offset" />
          </mxGeometry>
        </mxCell>
        <mxCell id="dH81x7TGgG7tPerTCJaM-24" value="8" style="edgeLabel;html=1;align=center;verticalAlign=middle;resizable=0;points=[];fontSize=11;fontFamily=Helvetica;fontColor=default;" vertex="1" connectable="0" parent="dH81x7TGgG7tPerTCJaM-22">
          <mxGeometry x="-0.8269" y="-1" relative="1" as="geometry">
            <mxPoint as="offset" />
          </mxGeometry>
        </mxCell>
        <mxCell id="dH81x7TGgG7tPerTCJaM-21" value="7:7" style="whiteSpace=wrap;html=1;aspect=fixed;fontFamily=Helvetica;fontSize=11;fontColor=default;" vertex="1" parent="1">
          <mxGeometry x="-360" y="1060.52" width="40" height="40" as="geometry" />
        </mxCell>
        <mxCell id="dH81x7TGgG7tPerTCJaM-32" style="edgeStyle=orthogonalEdgeStyle;shape=connector;rounded=0;orthogonalLoop=1;jettySize=auto;html=1;exitX=1;exitY=0.5;exitDx=0;exitDy=0;entryX=-0.001;entryY=0.751;entryDx=0;entryDy=0;entryPerimeter=0;labelBackgroundColor=default;strokeColor=default;align=center;verticalAlign=middle;fontFamily=Helvetica;fontSize=11;fontColor=default;endArrow=circle;endFill=0;" edge="1" parent="1" source="dH81x7TGgG7tPerTCJaM-21" target="K28dcVF4U-_2Pks2xvg8-174">
          <mxGeometry relative="1" as="geometry" />
        </mxCell>
        <mxCell id="dH81x7TGgG7tPerTCJaM-80" value="ERG (7)" style="edgeLabel;html=1;align=center;verticalAlign=middle;resizable=0;points=[];fontSize=11;fontFamily=Helvetica;fontColor=default;" vertex="1" connectable="0" parent="dH81x7TGgG7tPerTCJaM-32">
          <mxGeometry x="0.3833" relative="1" as="geometry">
            <mxPoint x="8" as="offset" />
          </mxGeometry>
        </mxCell>
        <mxCell id="dH81x7TGgG7tPerTCJaM-36" style="edgeStyle=orthogonalEdgeStyle;shape=connector;rounded=0;orthogonalLoop=1;jettySize=auto;html=1;entryX=0;entryY=0.75;entryDx=0;entryDy=0;entryPerimeter=0;labelBackgroundColor=default;strokeColor=default;align=center;verticalAlign=middle;fontFamily=Helvetica;fontSize=11;fontColor=default;endArrow=circle;endFill=0;startArrow=oval;startFill=1;" edge="1" parent="1" target="K28dcVF4U-_2Pks2xvg8-175">
          <mxGeometry relative="1" as="geometry">
            <mxPoint x="-200" y="1080.52" as="sourcePoint" />
            <mxPoint x="-110" y="1200.52" as="targetPoint" />
            <Array as="points">
              <mxPoint x="-200" y="1201" />
            </Array>
          </mxGeometry>
        </mxCell>
        <mxCell id="dH81x7TGgG7tPerTCJaM-78" value="ERG (7)" style="edgeLabel;html=1;align=center;verticalAlign=middle;resizable=0;points=[];fontSize=11;fontFamily=Helvetica;fontColor=default;" vertex="1" connectable="0" parent="dH81x7TGgG7tPerTCJaM-36">
          <mxGeometry x="0.4655" y="-2" relative="1" as="geometry">
            <mxPoint as="offset" />
          </mxGeometry>
        </mxCell>
        <mxCell id="dH81x7TGgG7tPerTCJaM-37" style="edgeStyle=orthogonalEdgeStyle;shape=connector;rounded=0;orthogonalLoop=1;jettySize=auto;html=1;exitX=1;exitY=0.5;exitDx=0;exitDy=0;entryX=0;entryY=0.20833333333333334;entryDx=0;entryDy=3;entryPerimeter=0;labelBackgroundColor=default;strokeColor=default;align=center;verticalAlign=middle;fontFamily=Helvetica;fontSize=11;fontColor=default;endArrow=none;endFill=0;" edge="1" parent="1" source="K28dcVF4U-_2Pks2xvg8-43" target="K28dcVF4U-_2Pks2xvg8-57">
          <mxGeometry relative="1" as="geometry">
            <Array as="points">
              <mxPoint x="-600" y="20" />
              <mxPoint x="-600" y="30" />
            </Array>
          </mxGeometry>
        </mxCell>
        <mxCell id="dH81x7TGgG7tPerTCJaM-38" style="edgeStyle=orthogonalEdgeStyle;shape=connector;rounded=0;orthogonalLoop=1;jettySize=auto;html=1;exitX=1;exitY=0.5;exitDx=0;exitDy=0;entryX=0;entryY=0.625;entryDx=0;entryDy=3;entryPerimeter=0;labelBackgroundColor=default;strokeColor=default;align=center;verticalAlign=middle;fontFamily=Helvetica;fontSize=11;fontColor=default;endArrow=none;endFill=0;" edge="1" parent="1" source="K28dcVF4U-_2Pks2xvg8-44" target="K28dcVF4U-_2Pks2xvg8-57">
          <mxGeometry relative="1" as="geometry">
            <Array as="points">
              <mxPoint x="-600" y="80" />
              <mxPoint x="-600" y="70" />
            </Array>
          </mxGeometry>
        </mxCell>
        <mxCell id="dH81x7TGgG7tPerTCJaM-44" style="edgeStyle=orthogonalEdgeStyle;shape=connector;rounded=0;orthogonalLoop=1;jettySize=auto;html=1;exitX=1;exitY=0.5;exitDx=0;exitDy=0;exitPerimeter=0;labelBackgroundColor=default;strokeColor=default;align=center;verticalAlign=middle;fontFamily=Helvetica;fontSize=11;fontColor=default;endArrow=none;endFill=0;entryX=0.003;entryY=0.166;entryDx=0;entryDy=0;entryPerimeter=0;" edge="1" parent="1" source="dH81x7TGgG7tPerTCJaM-45" target="dH81x7TGgG7tPerTCJaM-50">
          <mxGeometry relative="1" as="geometry">
            <mxPoint x="-60" y="1380" as="targetPoint" />
          </mxGeometry>
        </mxCell>
        <mxCell id="dH81x7TGgG7tPerTCJaM-60" style="edgeStyle=orthogonalEdgeStyle;shape=connector;rounded=0;orthogonalLoop=1;jettySize=auto;html=1;exitX=-0.007;exitY=0.751;exitDx=0;exitDy=0;exitPerimeter=0;labelBackgroundColor=default;strokeColor=default;align=center;verticalAlign=middle;fontFamily=Helvetica;fontSize=11;fontColor=default;endArrow=oval;endFill=1;" edge="1" parent="1" source="dH81x7TGgG7tPerTCJaM-45">
          <mxGeometry relative="1" as="geometry">
            <mxPoint x="-280" y="1040" as="targetPoint" />
            <Array as="points">
              <mxPoint x="-280" y="1320" />
            </Array>
          </mxGeometry>
        </mxCell>
        <mxCell id="dH81x7TGgG7tPerTCJaM-61" value="OPB/K (7)" style="edgeLabel;html=1;align=center;verticalAlign=middle;resizable=0;points=[];fontSize=11;fontFamily=Helvetica;fontColor=default;" vertex="1" connectable="0" parent="dH81x7TGgG7tPerTCJaM-60">
          <mxGeometry x="-0.412" y="1" relative="1" as="geometry">
            <mxPoint x="76" y="-1" as="offset" />
          </mxGeometry>
        </mxCell>
        <mxCell id="dH81x7TGgG7tPerTCJaM-45" value="and" style="verticalLabelPosition=bottom;shadow=0;dashed=0;align=center;html=1;verticalAlign=top;shape=mxgraph.electrical.iec_logic_gates.and;" vertex="1" parent="1">
          <mxGeometry x="-100" y="1260" width="60" height="80" as="geometry" />
        </mxCell>
        <mxCell id="dH81x7TGgG7tPerTCJaM-63" style="edgeStyle=orthogonalEdgeStyle;shape=connector;rounded=0;orthogonalLoop=1;jettySize=auto;html=1;labelBackgroundColor=default;strokeColor=default;align=center;verticalAlign=middle;fontFamily=Helvetica;fontSize=11;fontColor=default;endArrow=oval;endFill=1;exitX=-0.005;exitY=0.25;exitDx=0;exitDy=0;exitPerimeter=0;" edge="1" parent="1" source="dH81x7TGgG7tPerTCJaM-47">
          <mxGeometry relative="1" as="geometry">
            <mxPoint x="-280" y="1320" as="targetPoint" />
            <mxPoint x="-110" y="1400" as="sourcePoint" />
            <Array as="points">
              <mxPoint x="-280" y="1400" />
            </Array>
          </mxGeometry>
        </mxCell>
        <mxCell id="dH81x7TGgG7tPerTCJaM-64" value="OPB/K (7)" style="edgeLabel;html=1;align=center;verticalAlign=middle;resizable=0;points=[];fontSize=11;fontFamily=Helvetica;fontColor=default;" vertex="1" connectable="0" parent="dH81x7TGgG7tPerTCJaM-63">
          <mxGeometry x="0.0815" y="-1" relative="1" as="geometry">
            <mxPoint x="81" y="-1" as="offset" />
          </mxGeometry>
        </mxCell>
        <mxCell id="dH81x7TGgG7tPerTCJaM-65" style="edgeStyle=orthogonalEdgeStyle;shape=connector;rounded=0;orthogonalLoop=1;jettySize=auto;html=1;labelBackgroundColor=default;strokeColor=default;align=center;verticalAlign=middle;fontFamily=Helvetica;fontSize=11;fontColor=default;endArrow=oval;endFill=1;exitX=-0.004;exitY=0.752;exitDx=0;exitDy=0;exitPerimeter=0;" edge="1" parent="1" source="dH81x7TGgG7tPerTCJaM-47">
          <mxGeometry relative="1" as="geometry">
            <mxPoint x="-200" y="1200" as="targetPoint" />
            <mxPoint x="-110" y="1440" as="sourcePoint" />
            <Array as="points">
              <mxPoint x="-200" y="1440" />
            </Array>
          </mxGeometry>
        </mxCell>
        <mxCell id="dH81x7TGgG7tPerTCJaM-66" value="ERG (7)" style="edgeLabel;html=1;align=center;verticalAlign=middle;resizable=0;points=[];fontSize=11;fontFamily=Helvetica;fontColor=default;" vertex="1" connectable="0" parent="dH81x7TGgG7tPerTCJaM-65">
          <mxGeometry x="-0.6223" y="-1" relative="1" as="geometry">
            <mxPoint x="4" y="1" as="offset" />
          </mxGeometry>
        </mxCell>
        <mxCell id="dH81x7TGgG7tPerTCJaM-47" value="and" style="verticalLabelPosition=bottom;shadow=0;dashed=0;align=center;html=1;verticalAlign=top;shape=mxgraph.electrical.iec_logic_gates.and;" vertex="1" parent="1">
          <mxGeometry x="-100" y="1380" width="60" height="80" as="geometry" />
        </mxCell>
        <mxCell id="dH81x7TGgG7tPerTCJaM-49" value="and" style="verticalLabelPosition=bottom;shadow=0;dashed=0;align=center;html=1;verticalAlign=top;shape=mxgraph.electrical.iec_logic_gates.and;" vertex="1" parent="1">
          <mxGeometry x="-100" y="1500" width="60" height="80" as="geometry" />
        </mxCell>
        <mxCell id="dH81x7TGgG7tPerTCJaM-54" style="edgeStyle=orthogonalEdgeStyle;shape=connector;rounded=0;orthogonalLoop=1;jettySize=auto;html=1;exitX=1;exitY=0.5;exitDx=0;exitDy=0;exitPerimeter=0;entryX=0;entryY=0.5;entryDx=0;entryDy=0;labelBackgroundColor=default;strokeColor=default;align=center;verticalAlign=middle;fontFamily=Helvetica;fontSize=11;fontColor=default;endArrow=none;endFill=0;" edge="1" parent="1" source="dH81x7TGgG7tPerTCJaM-50" target="K28dcVF4U-_2Pks2xvg8-164">
          <mxGeometry relative="1" as="geometry" />
        </mxCell>
        <mxCell id="dH81x7TGgG7tPerTCJaM-50" value="or" style="verticalLabelPosition=bottom;shadow=0;dashed=0;align=center;html=1;verticalAlign=top;shape=mxgraph.electrical.iec_logic_gates.or;" vertex="1" parent="1">
          <mxGeometry x="20" y="1360" width="60" height="120" as="geometry" />
        </mxCell>
        <mxCell id="dH81x7TGgG7tPerTCJaM-51" style="edgeStyle=orthogonalEdgeStyle;shape=connector;rounded=0;orthogonalLoop=1;jettySize=auto;html=1;exitX=1;exitY=0.5;exitDx=0;exitDy=0;exitPerimeter=0;entryX=0;entryY=0.5;entryDx=0;entryDy=0;entryPerimeter=0;labelBackgroundColor=default;strokeColor=default;align=center;verticalAlign=middle;fontFamily=Helvetica;fontSize=11;fontColor=default;endArrow=none;endFill=0;" edge="1" parent="1" source="dH81x7TGgG7tPerTCJaM-47" target="dH81x7TGgG7tPerTCJaM-50">
          <mxGeometry relative="1" as="geometry" />
        </mxCell>
        <mxCell id="dH81x7TGgG7tPerTCJaM-52" style="edgeStyle=orthogonalEdgeStyle;shape=connector;rounded=0;orthogonalLoop=1;jettySize=auto;html=1;exitX=1;exitY=0.5;exitDx=0;exitDy=0;exitPerimeter=0;entryX=-0.007;entryY=0.833;entryDx=0;entryDy=0;entryPerimeter=0;labelBackgroundColor=default;strokeColor=default;align=center;verticalAlign=middle;fontFamily=Helvetica;fontSize=11;fontColor=default;endArrow=none;endFill=0;" edge="1" parent="1" source="dH81x7TGgG7tPerTCJaM-49" target="dH81x7TGgG7tPerTCJaM-50">
          <mxGeometry relative="1" as="geometry" />
        </mxCell>
        <mxCell id="dH81x7TGgG7tPerTCJaM-58" style="edgeStyle=orthogonalEdgeStyle;shape=connector;rounded=0;orthogonalLoop=1;jettySize=auto;html=1;entryX=0;entryY=0.75;entryDx=0;entryDy=0;entryPerimeter=0;labelBackgroundColor=default;strokeColor=default;align=center;verticalAlign=middle;fontFamily=Helvetica;fontSize=11;fontColor=default;endArrow=circle;endFill=0;startArrow=oval;startFill=1;" edge="1" parent="1">
          <mxGeometry relative="1" as="geometry">
            <mxPoint x="-240" y="1160" as="sourcePoint" />
            <mxPoint x="-100" y="1280.48" as="targetPoint" />
            <Array as="points">
              <mxPoint x="-240" y="1160" />
              <mxPoint x="-240" y="1281" />
            </Array>
          </mxGeometry>
        </mxCell>
        <mxCell id="dH81x7TGgG7tPerTCJaM-59" value="OPA (7)" style="edgeLabel;html=1;align=center;verticalAlign=middle;resizable=0;points=[];fontSize=11;fontFamily=Helvetica;fontColor=default;" vertex="1" connectable="0" parent="dH81x7TGgG7tPerTCJaM-58">
          <mxGeometry x="0.3007" y="1" relative="1" as="geometry">
            <mxPoint x="31" as="offset" />
          </mxGeometry>
        </mxCell>
        <mxCell id="dH81x7TGgG7tPerTCJaM-67" style="edgeStyle=orthogonalEdgeStyle;shape=connector;rounded=0;orthogonalLoop=1;jettySize=auto;html=1;entryX=0;entryY=0.75;entryDx=0;entryDy=0;entryPerimeter=0;labelBackgroundColor=default;strokeColor=default;align=center;verticalAlign=middle;fontFamily=Helvetica;fontSize=11;fontColor=default;endArrow=circle;endFill=0;startArrow=oval;startFill=1;" edge="1" parent="1">
          <mxGeometry relative="1" as="geometry">
            <mxPoint x="-240" y="1280" as="sourcePoint" />
            <mxPoint x="-100" y="1520.48" as="targetPoint" />
            <Array as="points">
              <mxPoint x="-240" y="1400" />
              <mxPoint x="-240" y="1521" />
            </Array>
          </mxGeometry>
        </mxCell>
        <mxCell id="dH81x7TGgG7tPerTCJaM-68" value="OPA (7)" style="edgeLabel;html=1;align=center;verticalAlign=middle;resizable=0;points=[];fontSize=11;fontFamily=Helvetica;fontColor=default;" vertex="1" connectable="0" parent="dH81x7TGgG7tPerTCJaM-67">
          <mxGeometry x="0.3007" y="1" relative="1" as="geometry">
            <mxPoint x="73" as="offset" />
          </mxGeometry>
        </mxCell>
        <mxCell id="dH81x7TGgG7tPerTCJaM-69" style="edgeStyle=orthogonalEdgeStyle;shape=connector;rounded=0;orthogonalLoop=1;jettySize=auto;html=1;labelBackgroundColor=default;strokeColor=default;align=center;verticalAlign=middle;fontFamily=Helvetica;fontSize=11;fontColor=default;endArrow=oval;endFill=1;exitX=-0.004;exitY=0.752;exitDx=0;exitDy=0;exitPerimeter=0;" edge="1" parent="1">
          <mxGeometry relative="1" as="geometry">
            <mxPoint x="-200" y="1440" as="targetPoint" />
            <mxPoint x="-100" y="1559.76" as="sourcePoint" />
          </mxGeometry>
        </mxCell>
        <mxCell id="dH81x7TGgG7tPerTCJaM-70" value="ERG (7)" style="edgeLabel;html=1;align=center;verticalAlign=middle;resizable=0;points=[];fontSize=11;fontFamily=Helvetica;fontColor=default;" vertex="1" connectable="0" parent="dH81x7TGgG7tPerTCJaM-69">
          <mxGeometry x="-0.6223" y="-1" relative="1" as="geometry">
            <mxPoint x="-18" y="-1" as="offset" />
          </mxGeometry>
        </mxCell>
        <mxCell id="dH81x7TGgG7tPerTCJaM-73" style="edgeStyle=orthogonalEdgeStyle;shape=connector;rounded=0;orthogonalLoop=1;jettySize=auto;html=1;exitX=1;exitY=0.5;exitDx=0;exitDy=0;entryX=0;entryY=0.5;entryDx=0;entryDy=0;labelBackgroundColor=default;strokeColor=default;align=center;verticalAlign=middle;fontFamily=Helvetica;fontSize=11;fontColor=default;endArrow=none;endFill=0;" edge="1" parent="1" source="dH81x7TGgG7tPerTCJaM-72" target="K28dcVF4U-_2Pks2xvg8-165">
          <mxGeometry relative="1" as="geometry" />
        </mxCell>
        <mxCell id="dH81x7TGgG7tPerTCJaM-72" value="1" style="whiteSpace=wrap;html=1;aspect=fixed;fontFamily=Helvetica;fontSize=11;fontColor=default;" vertex="1" parent="1">
          <mxGeometry x="120" y="1460" width="40" height="40" as="geometry" />
        </mxCell>
        <mxCell id="dH81x7TGgG7tPerTCJaM-75" style="edgeStyle=orthogonalEdgeStyle;shape=connector;rounded=0;orthogonalLoop=1;jettySize=auto;html=1;exitX=0;exitY=0.5;exitDx=0;exitDy=0;labelBackgroundColor=default;strokeColor=default;align=center;verticalAlign=middle;fontFamily=Helvetica;fontSize=11;fontColor=default;endArrow=oval;endFill=1;" edge="1" parent="1" source="dH81x7TGgG7tPerTCJaM-74">
          <mxGeometry relative="1" as="geometry">
            <mxPoint x="-640" y="920" as="targetPoint" />
          </mxGeometry>
        </mxCell>
        <mxCell id="dH81x7TGgG7tPerTCJaM-76" style="edgeStyle=orthogonalEdgeStyle;shape=connector;rounded=0;orthogonalLoop=1;jettySize=auto;html=1;exitX=1;exitY=0.5;exitDx=0;exitDy=0;entryX=0;entryY=0.5;entryDx=0;entryDy=0;labelBackgroundColor=default;strokeColor=default;align=center;verticalAlign=middle;fontFamily=Helvetica;fontSize=11;fontColor=default;endArrow=none;endFill=0;" edge="1" parent="1" source="dH81x7TGgG7tPerTCJaM-74" target="K28dcVF4U-_2Pks2xvg8-166">
          <mxGeometry relative="1" as="geometry">
            <Array as="points">
              <mxPoint x="40" y="1620" />
              <mxPoint x="40" y="1558" />
            </Array>
          </mxGeometry>
        </mxCell>
        <mxCell id="dH81x7TGgG7tPerTCJaM-77" value="OPA (0)" style="edgeLabel;html=1;align=center;verticalAlign=middle;resizable=0;points=[];fontSize=11;fontFamily=Helvetica;fontColor=default;" vertex="1" connectable="0" parent="dH81x7TGgG7tPerTCJaM-76">
          <mxGeometry x="-0.1179" y="-2" relative="1" as="geometry">
            <mxPoint x="20" y="-2" as="offset" />
          </mxGeometry>
        </mxCell>
        <mxCell id="dH81x7TGgG7tPerTCJaM-74" value="0:0" style="whiteSpace=wrap;html=1;aspect=fixed;fontFamily=Helvetica;fontSize=11;fontColor=default;" vertex="1" parent="1">
          <mxGeometry x="-600" y="1600" width="40" height="40" as="geometry" />
        </mxCell>
        <mxCell id="dH81x7TGgG7tPerTCJaM-84" value="STATUS" style="triangle;whiteSpace=wrap;html=1;fontFamily=Helvetica;fontSize=11;fontColor=default;" vertex="1" parent="1">
          <mxGeometry x="1680" y="540" width="60" height="80" as="geometry" />
        </mxCell>
        <mxCell id="dH81x7TGgG7tPerTCJaM-88" style="edgeStyle=orthogonalEdgeStyle;shape=connector;rounded=0;orthogonalLoop=1;jettySize=auto;html=1;exitX=1;exitY=0.5;exitDx=0;exitDy=0;exitPerimeter=0;entryX=0;entryY=0.5;entryDx=0;entryDy=0;labelBackgroundColor=default;strokeColor=default;align=center;verticalAlign=middle;fontFamily=Helvetica;fontSize=11;fontColor=default;endArrow=none;endFill=0;" edge="1" parent="1" source="dH81x7TGgG7tPerTCJaM-87" target="dH81x7TGgG7tPerTCJaM-84">
          <mxGeometry relative="1" as="geometry" />
        </mxCell>
        <mxCell id="dH81x7TGgG7tPerTCJaM-97" value="" style="group" vertex="1" connectable="0" parent="1">
          <mxGeometry x="1440" y="400" width="120" height="360" as="geometry" />
        </mxCell>
        <mxCell id="dH81x7TGgG7tPerTCJaM-227" style="edgeStyle=orthogonalEdgeStyle;shape=connector;rounded=0;orthogonalLoop=1;jettySize=auto;html=1;exitX=0;exitY=0.33;exitDx=0;exitDy=0;exitPerimeter=0;labelBackgroundColor=default;strokeColor=default;align=center;verticalAlign=middle;fontFamily=Helvetica;fontSize=11;fontColor=default;endArrow=oval;endFill=1;" edge="1" parent="dH81x7TGgG7tPerTCJaM-97" source="dH81x7TGgG7tPerTCJaM-87">
          <mxGeometry relative="1" as="geometry">
            <mxPoint x="-80" y="80" as="targetPoint" />
            <Array as="points">
              <mxPoint x="-80" y="119" />
            </Array>
          </mxGeometry>
        </mxCell>
        <mxCell id="dH81x7TGgG7tPerTCJaM-87" value="8 zu 1" style="rounded=0;whiteSpace=wrap;html=1;fontFamily=Helvetica;fontSize=11;fontColor=default;points=[[0,0,0,0,0],[0,0.11,0,0,0],[0,0.22,0,0,0],[0,0.25,0,0,0],[0,0.33,0,0,0],[0,0.44,0,0,0],[0,0.5,0,0,0],[0,0.56,0,0,0],[0,0.67,0,0,0],[0,0.75,0,0,0],[0,0.78,0,0,0],[0,0.89,0,0,0],[0,1,0,0,0],[0.25,0,0,0,0],[0.25,1,0,0,0],[0.5,0,0,0,0],[0.5,1,0,0,0],[0.75,0,0,0,0],[0.75,1,0,0,0],[1,0,0,0,0],[1,0.25,0,0,0],[1,0.5,0,0,0],[1,0.75,0,0,0],[1,1,0,0,0]];" vertex="1" parent="dH81x7TGgG7tPerTCJaM-97">
          <mxGeometry width="120" height="360" as="geometry" />
        </mxCell>
        <mxCell id="dH81x7TGgG7tPerTCJaM-89" value="I" style="text;html=1;strokeColor=none;fillColor=none;align=center;verticalAlign=middle;whiteSpace=wrap;rounded=0;fontSize=11;fontFamily=Helvetica;fontColor=default;" vertex="1" parent="dH81x7TGgG7tPerTCJaM-97">
          <mxGeometry y="25" width="20" height="30" as="geometry" />
        </mxCell>
        <mxCell id="dH81x7TGgG7tPerTCJaM-225" style="edgeStyle=orthogonalEdgeStyle;shape=connector;rounded=0;orthogonalLoop=1;jettySize=auto;html=1;exitX=0;exitY=0.25;exitDx=0;exitDy=0;labelBackgroundColor=default;strokeColor=default;align=center;verticalAlign=middle;fontFamily=Helvetica;fontSize=11;fontColor=default;endArrow=oval;endFill=1;" edge="1" parent="dH81x7TGgG7tPerTCJaM-97" source="dH81x7TGgG7tPerTCJaM-90">
          <mxGeometry relative="1" as="geometry">
            <mxPoint x="-80" y="40" as="targetPoint" />
            <Array as="points">
              <mxPoint y="80" />
              <mxPoint x="-80" y="80" />
            </Array>
          </mxGeometry>
        </mxCell>
        <mxCell id="dH81x7TGgG7tPerTCJaM-90" value="T" style="text;html=1;strokeColor=none;fillColor=none;align=center;verticalAlign=middle;whiteSpace=wrap;rounded=0;fontSize=11;fontFamily=Helvetica;fontColor=default;" vertex="1" parent="dH81x7TGgG7tPerTCJaM-97">
          <mxGeometry y="70" width="20" height="30" as="geometry" />
        </mxCell>
        <mxCell id="dH81x7TGgG7tPerTCJaM-91" value="H" style="text;html=1;strokeColor=none;fillColor=none;align=center;verticalAlign=middle;whiteSpace=wrap;rounded=0;fontSize=11;fontFamily=Helvetica;fontColor=default;" vertex="1" parent="dH81x7TGgG7tPerTCJaM-97">
          <mxGeometry y="103" width="20" height="30" as="geometry" />
        </mxCell>
        <mxCell id="dH81x7TGgG7tPerTCJaM-92" value="S" style="text;html=1;strokeColor=none;fillColor=none;align=center;verticalAlign=middle;whiteSpace=wrap;rounded=0;fontSize=11;fontFamily=Helvetica;fontColor=default;" vertex="1" parent="dH81x7TGgG7tPerTCJaM-97">
          <mxGeometry y="145" width="20" height="30" as="geometry" />
        </mxCell>
        <mxCell id="dH81x7TGgG7tPerTCJaM-185" style="edgeStyle=orthogonalEdgeStyle;shape=connector;rounded=0;orthogonalLoop=1;jettySize=auto;html=1;exitX=0;exitY=0.5;exitDx=0;exitDy=0;labelBackgroundColor=default;strokeColor=default;align=center;verticalAlign=middle;fontFamily=Helvetica;fontSize=11;fontColor=default;endArrow=none;endFill=0;" edge="1" parent="dH81x7TGgG7tPerTCJaM-97" source="dH81x7TGgG7tPerTCJaM-93">
          <mxGeometry relative="1" as="geometry">
            <mxPoint x="-1080" y="2200" as="targetPoint" />
            <Array as="points">
              <mxPoint x="-160" y="200" />
              <mxPoint x="-160" y="2200" />
            </Array>
          </mxGeometry>
        </mxCell>
        <mxCell id="dH81x7TGgG7tPerTCJaM-93" value="V" style="text;html=1;strokeColor=none;fillColor=none;align=center;verticalAlign=middle;whiteSpace=wrap;rounded=0;fontSize=11;fontFamily=Helvetica;fontColor=default;" vertex="1" parent="dH81x7TGgG7tPerTCJaM-97">
          <mxGeometry y="185" width="20" height="30" as="geometry" />
        </mxCell>
        <mxCell id="dH81x7TGgG7tPerTCJaM-94" value="N" style="text;html=1;strokeColor=none;fillColor=none;align=center;verticalAlign=middle;whiteSpace=wrap;rounded=0;fontSize=11;fontFamily=Helvetica;fontColor=default;" vertex="1" parent="dH81x7TGgG7tPerTCJaM-97">
          <mxGeometry y="225" width="20" height="30" as="geometry" />
        </mxCell>
        <mxCell id="dH81x7TGgG7tPerTCJaM-95" value="Z" style="text;html=1;strokeColor=none;fillColor=none;align=center;verticalAlign=middle;whiteSpace=wrap;rounded=0;fontSize=11;fontFamily=Helvetica;fontColor=default;" vertex="1" parent="dH81x7TGgG7tPerTCJaM-97">
          <mxGeometry y="265" width="20" height="30" as="geometry" />
        </mxCell>
        <mxCell id="dH81x7TGgG7tPerTCJaM-98" style="edgeStyle=orthogonalEdgeStyle;shape=connector;rounded=0;orthogonalLoop=1;jettySize=auto;html=1;exitX=0;exitY=0.5;exitDx=0;exitDy=0;labelBackgroundColor=default;strokeColor=default;align=center;verticalAlign=middle;fontFamily=Helvetica;fontSize=11;fontColor=default;endArrow=none;endFill=0;" edge="1" parent="dH81x7TGgG7tPerTCJaM-97" source="dH81x7TGgG7tPerTCJaM-96">
          <mxGeometry relative="1" as="geometry">
            <mxPoint x="-1084.2424242424242" y="1040.6060606060605" as="targetPoint" />
            <Array as="points">
              <mxPoint x="-80" y="321" />
              <mxPoint x="-80" y="1040" />
              <mxPoint x="-1084" y="1040" />
            </Array>
          </mxGeometry>
        </mxCell>
        <mxCell id="dH81x7TGgG7tPerTCJaM-99" value="C" style="edgeLabel;html=1;align=center;verticalAlign=middle;resizable=0;points=[];fontSize=11;fontFamily=Helvetica;fontColor=default;" vertex="1" connectable="0" parent="dH81x7TGgG7tPerTCJaM-98">
          <mxGeometry x="0.6711" y="-1" relative="1" as="geometry">
            <mxPoint as="offset" />
          </mxGeometry>
        </mxCell>
        <mxCell id="dH81x7TGgG7tPerTCJaM-96" value="C" style="text;html=1;strokeColor=none;fillColor=none;align=center;verticalAlign=middle;whiteSpace=wrap;rounded=0;fontSize=11;fontFamily=Helvetica;fontColor=default;" vertex="1" parent="dH81x7TGgG7tPerTCJaM-97">
          <mxGeometry y="306" width="20" height="30" as="geometry" />
        </mxCell>
        <mxCell id="dH81x7TGgG7tPerTCJaM-136" style="edgeStyle=orthogonalEdgeStyle;shape=connector;rounded=0;orthogonalLoop=1;jettySize=auto;html=1;exitX=0;exitY=0.5;exitDx=0;exitDy=0;labelBackgroundColor=default;strokeColor=default;align=center;verticalAlign=middle;fontFamily=Helvetica;fontSize=11;fontColor=default;endArrow=oval;endFill=1;" edge="1" parent="1" source="dH81x7TGgG7tPerTCJaM-100">
          <mxGeometry relative="1" as="geometry">
            <mxPoint x="-1390" y="1990" as="targetPoint" />
          </mxGeometry>
        </mxCell>
        <mxCell id="dH81x7TGgG7tPerTCJaM-100" value="3:3" style="rounded=0;whiteSpace=wrap;html=1;fontFamily=Helvetica;fontSize=11;fontColor=default;" vertex="1" parent="1">
          <mxGeometry x="-1370" y="2080" width="40" height="40" as="geometry" />
        </mxCell>
        <mxCell id="dH81x7TGgG7tPerTCJaM-135" style="edgeStyle=orthogonalEdgeStyle;shape=connector;rounded=0;orthogonalLoop=1;jettySize=auto;html=1;exitX=0;exitY=0.5;exitDx=0;exitDy=0;labelBackgroundColor=default;strokeColor=default;align=center;verticalAlign=middle;fontFamily=Helvetica;fontSize=11;fontColor=default;endArrow=oval;endFill=1;" edge="1" parent="1" source="dH81x7TGgG7tPerTCJaM-101">
          <mxGeometry relative="1" as="geometry">
            <mxPoint x="-1390" y="1880" as="targetPoint" />
          </mxGeometry>
        </mxCell>
        <mxCell id="dH81x7TGgG7tPerTCJaM-101" value="2:2" style="rounded=0;whiteSpace=wrap;html=1;fontFamily=Helvetica;fontSize=11;fontColor=default;" vertex="1" parent="1">
          <mxGeometry x="-1370" y="1970" width="40" height="40" as="geometry" />
        </mxCell>
        <mxCell id="dH81x7TGgG7tPerTCJaM-134" style="edgeStyle=orthogonalEdgeStyle;shape=connector;rounded=0;orthogonalLoop=1;jettySize=auto;html=1;exitX=0;exitY=0.5;exitDx=0;exitDy=0;labelBackgroundColor=default;strokeColor=default;align=center;verticalAlign=middle;fontFamily=Helvetica;fontSize=11;fontColor=default;endArrow=oval;endFill=1;" edge="1" parent="1" source="dH81x7TGgG7tPerTCJaM-102">
          <mxGeometry relative="1" as="geometry">
            <mxPoint x="-980" y="840" as="targetPoint" />
          </mxGeometry>
        </mxCell>
        <mxCell id="dH81x7TGgG7tPerTCJaM-102" value="1:1" style="rounded=0;whiteSpace=wrap;html=1;fontFamily=Helvetica;fontSize=11;fontColor=default;" vertex="1" parent="1">
          <mxGeometry x="-1370" y="1860" width="40" height="40" as="geometry" />
        </mxCell>
        <mxCell id="dH81x7TGgG7tPerTCJaM-103" value="and" style="verticalLabelPosition=bottom;shadow=0;dashed=0;align=center;html=1;verticalAlign=top;shape=mxgraph.electrical.iec_logic_gates.and;points=[[0,0.33,0,0,0],[0,0.5,0,0,0],[0,0.67,0,0,0],[1,0.5,0,0,0]];" vertex="1" parent="1">
          <mxGeometry x="-1050" y="1960" width="60" height="80" as="geometry" />
        </mxCell>
        <mxCell id="dH81x7TGgG7tPerTCJaM-109" style="edgeStyle=orthogonalEdgeStyle;shape=connector;rounded=0;orthogonalLoop=1;jettySize=auto;html=1;exitX=0;exitY=0.67;exitDx=0;exitDy=0;exitPerimeter=0;labelBackgroundColor=default;strokeColor=default;align=center;verticalAlign=middle;fontFamily=Helvetica;fontSize=11;fontColor=default;endArrow=oval;endFill=1;startArrow=none;startFill=0;" edge="1" parent="1" source="dH81x7TGgG7tPerTCJaM-105">
          <mxGeometry relative="1" as="geometry">
            <mxPoint x="-1190" y="1990" as="targetPoint" />
            <Array as="points">
              <mxPoint x="-1190" y="2134" />
            </Array>
          </mxGeometry>
        </mxCell>
        <mxCell id="dH81x7TGgG7tPerTCJaM-105" value="and" style="verticalLabelPosition=bottom;shadow=0;dashed=0;align=center;html=1;verticalAlign=top;shape=mxgraph.electrical.iec_logic_gates.and;points=[[0,0.33,0,0,0],[0,0.5,0,0,0],[0,0.67,0,0,0],[1,0.5,0,0,0]];" vertex="1" parent="1">
          <mxGeometry x="-1050" y="2080" width="60" height="80" as="geometry" />
        </mxCell>
        <mxCell id="dH81x7TGgG7tPerTCJaM-106" style="edgeStyle=orthogonalEdgeStyle;shape=connector;rounded=0;orthogonalLoop=1;jettySize=auto;html=1;exitX=1;exitY=0.5;exitDx=0;exitDy=0;entryX=0;entryY=0.33;entryDx=0;entryDy=0;entryPerimeter=0;labelBackgroundColor=default;strokeColor=default;align=center;verticalAlign=middle;fontFamily=Helvetica;fontSize=11;fontColor=default;endArrow=none;endFill=0;" edge="1" parent="1" source="dH81x7TGgG7tPerTCJaM-101" target="dH81x7TGgG7tPerTCJaM-103">
          <mxGeometry relative="1" as="geometry">
            <Array as="points">
              <mxPoint x="-1050" y="1990" />
            </Array>
          </mxGeometry>
        </mxCell>
        <mxCell id="dH81x7TGgG7tPerTCJaM-107" style="edgeStyle=orthogonalEdgeStyle;shape=connector;rounded=0;orthogonalLoop=1;jettySize=auto;html=1;exitX=1;exitY=0.5;exitDx=0;exitDy=0;entryX=0;entryY=0.67;entryDx=0;entryDy=0;entryPerimeter=0;labelBackgroundColor=default;strokeColor=default;align=center;verticalAlign=middle;fontFamily=Helvetica;fontSize=11;fontColor=default;endArrow=circle;endFill=0;" edge="1" parent="1" source="dH81x7TGgG7tPerTCJaM-102">
          <mxGeometry relative="1" as="geometry">
            <mxPoint x="-1330" y="1936.4" as="sourcePoint" />
            <mxPoint x="-1050" y="2010" as="targetPoint" />
            <Array as="points">
              <mxPoint x="-1130" y="1880" />
              <mxPoint x="-1130" y="2010" />
            </Array>
          </mxGeometry>
        </mxCell>
        <mxCell id="dH81x7TGgG7tPerTCJaM-108" style="edgeStyle=orthogonalEdgeStyle;shape=connector;rounded=0;orthogonalLoop=1;jettySize=auto;html=1;exitX=1;exitY=0.5;exitDx=0;exitDy=0;entryX=0;entryY=0.33;entryDx=0;entryDy=0;entryPerimeter=0;labelBackgroundColor=default;strokeColor=default;align=center;verticalAlign=middle;fontFamily=Helvetica;fontSize=11;fontColor=default;endArrow=none;endFill=0;" edge="1" parent="1" source="dH81x7TGgG7tPerTCJaM-100" target="dH81x7TGgG7tPerTCJaM-105">
          <mxGeometry relative="1" as="geometry">
            <Array as="points">
              <mxPoint x="-1050" y="2100" />
            </Array>
          </mxGeometry>
        </mxCell>
        <mxCell id="dH81x7TGgG7tPerTCJaM-110" value="or" style="verticalLabelPosition=bottom;shadow=0;dashed=0;align=center;html=1;verticalAlign=top;shape=mxgraph.electrical.iec_logic_gates.or;points=[[0,0.33,0,0,0],[0,0.5,0,0,0],[0,0.67,0,0,0],[1,0.5,0,0,0]];" vertex="1" parent="1">
          <mxGeometry x="-900" y="2010" width="60" height="80" as="geometry" />
        </mxCell>
        <mxCell id="dH81x7TGgG7tPerTCJaM-111" style="edgeStyle=orthogonalEdgeStyle;shape=connector;rounded=0;orthogonalLoop=1;jettySize=auto;html=1;exitX=1;exitY=0.5;exitDx=0;exitDy=0;exitPerimeter=0;entryX=0;entryY=0.67;entryDx=0;entryDy=0;entryPerimeter=0;labelBackgroundColor=default;strokeColor=default;align=center;verticalAlign=middle;fontFamily=Helvetica;fontSize=11;fontColor=default;endArrow=none;endFill=0;" edge="1" parent="1" source="dH81x7TGgG7tPerTCJaM-105" target="dH81x7TGgG7tPerTCJaM-110">
          <mxGeometry relative="1" as="geometry" />
        </mxCell>
        <mxCell id="dH81x7TGgG7tPerTCJaM-112" style="edgeStyle=orthogonalEdgeStyle;shape=connector;rounded=0;orthogonalLoop=1;jettySize=auto;html=1;exitX=1;exitY=0.5;exitDx=0;exitDy=0;exitPerimeter=0;entryX=0;entryY=0.33;entryDx=0;entryDy=0;entryPerimeter=0;labelBackgroundColor=default;strokeColor=default;align=center;verticalAlign=middle;fontFamily=Helvetica;fontSize=11;fontColor=default;endArrow=none;endFill=0;" edge="1" parent="1" source="dH81x7TGgG7tPerTCJaM-103" target="dH81x7TGgG7tPerTCJaM-110">
          <mxGeometry relative="1" as="geometry" />
        </mxCell>
        <mxCell id="dH81x7TGgG7tPerTCJaM-114" style="edgeStyle=orthogonalEdgeStyle;shape=connector;rounded=0;orthogonalLoop=1;jettySize=auto;html=1;exitX=0;exitY=0.67;exitDx=0;exitDy=0;exitPerimeter=0;labelBackgroundColor=default;strokeColor=default;align=center;verticalAlign=middle;fontFamily=Helvetica;fontSize=11;fontColor=default;endArrow=none;endFill=0;" edge="1" parent="1" source="dH81x7TGgG7tPerTCJaM-113">
          <mxGeometry relative="1" as="geometry">
            <mxPoint x="-1190" y="2130" as="targetPoint" />
          </mxGeometry>
        </mxCell>
        <mxCell id="dH81x7TGgG7tPerTCJaM-115" style="edgeStyle=orthogonalEdgeStyle;shape=connector;rounded=0;orthogonalLoop=1;jettySize=auto;html=1;exitX=0;exitY=0.33;exitDx=0;exitDy=0;exitPerimeter=0;labelBackgroundColor=default;strokeColor=default;align=center;verticalAlign=middle;fontFamily=Helvetica;fontSize=11;fontColor=default;endArrow=oval;endFill=1;" edge="1" parent="1">
          <mxGeometry relative="1" as="geometry">
            <mxPoint x="-1130" y="1880" as="targetPoint" />
            <mxPoint x="-1050" y="1875.9" as="sourcePoint" />
            <Array as="points">
              <mxPoint x="-1050" y="1880" />
            </Array>
          </mxGeometry>
        </mxCell>
        <mxCell id="dH81x7TGgG7tPerTCJaM-113" value="and" style="verticalLabelPosition=bottom;shadow=0;dashed=0;align=center;html=1;verticalAlign=top;shape=mxgraph.electrical.iec_logic_gates.and;points=[[0,0.33,0,0,0],[0,0.5,0,0,0],[0,0.67,0,0,0],[1,0.5,0,0,0]];" vertex="1" parent="1">
          <mxGeometry x="-1050" y="1850" width="60" height="80" as="geometry" />
        </mxCell>
        <mxCell id="dH81x7TGgG7tPerTCJaM-117" style="edgeStyle=orthogonalEdgeStyle;shape=connector;rounded=0;orthogonalLoop=1;jettySize=auto;html=1;exitX=0;exitY=0.33;exitDx=0;exitDy=0;exitPerimeter=0;labelBackgroundColor=default;strokeColor=default;align=center;verticalAlign=middle;fontFamily=Helvetica;fontSize=11;fontColor=default;endArrow=oval;endFill=1;" edge="1" parent="1" source="dH81x7TGgG7tPerTCJaM-116">
          <mxGeometry relative="1" as="geometry">
            <mxPoint x="-1110" y="2100" as="targetPoint" />
          </mxGeometry>
        </mxCell>
        <mxCell id="dH81x7TGgG7tPerTCJaM-116" value="or" style="verticalLabelPosition=bottom;shadow=0;dashed=0;align=center;html=1;verticalAlign=top;shape=mxgraph.electrical.iec_logic_gates.or;points=[[0,0.33,0,0,0],[0,0.5,0,0,0],[0,0.67,0,0,0],[1,0.5,0,0,0]];" vertex="1" parent="1">
          <mxGeometry x="-900" y="1810" width="60" height="80" as="geometry" />
        </mxCell>
        <mxCell id="dH81x7TGgG7tPerTCJaM-118" style="edgeStyle=orthogonalEdgeStyle;shape=connector;rounded=0;orthogonalLoop=1;jettySize=auto;html=1;exitX=1;exitY=0.5;exitDx=0;exitDy=0;exitPerimeter=0;entryX=0;entryY=0.67;entryDx=0;entryDy=0;entryPerimeter=0;labelBackgroundColor=default;strokeColor=default;align=center;verticalAlign=middle;fontFamily=Helvetica;fontSize=11;fontColor=default;endArrow=none;endFill=0;" edge="1" parent="1" source="dH81x7TGgG7tPerTCJaM-113" target="dH81x7TGgG7tPerTCJaM-116">
          <mxGeometry relative="1" as="geometry" />
        </mxCell>
        <mxCell id="dH81x7TGgG7tPerTCJaM-122" style="edgeStyle=orthogonalEdgeStyle;shape=connector;rounded=0;orthogonalLoop=1;jettySize=auto;html=1;exitX=1;exitY=0.5;exitDx=0;exitDy=0;labelBackgroundColor=default;strokeColor=default;align=center;verticalAlign=middle;fontFamily=Helvetica;fontSize=11;fontColor=default;endArrow=none;endFill=0;entryX=1;entryY=0.5;entryDx=0;entryDy=0;" edge="1" parent="1" source="dH81x7TGgG7tPerTCJaM-119" target="dH81x7TGgG7tPerTCJaM-133">
          <mxGeometry relative="1" as="geometry">
            <mxPoint x="-510" y="1930.0689655172414" as="targetPoint" />
          </mxGeometry>
        </mxCell>
        <mxCell id="dH81x7TGgG7tPerTCJaM-119" value="2 zu 1" style="rounded=0;whiteSpace=wrap;html=1;fontFamily=Helvetica;fontSize=11;fontColor=default;" vertex="1" parent="1">
          <mxGeometry x="-730" y="1870" width="80" height="120" as="geometry" />
        </mxCell>
        <mxCell id="dH81x7TGgG7tPerTCJaM-120" style="edgeStyle=orthogonalEdgeStyle;shape=connector;rounded=0;orthogonalLoop=1;jettySize=auto;html=1;exitX=0;exitY=0.25;exitDx=0;exitDy=0;entryX=1;entryY=0.5;entryDx=0;entryDy=0;entryPerimeter=0;labelBackgroundColor=default;strokeColor=default;align=center;verticalAlign=middle;fontFamily=Helvetica;fontSize=11;fontColor=default;endArrow=none;endFill=0;" edge="1" parent="1" source="dH81x7TGgG7tPerTCJaM-119" target="dH81x7TGgG7tPerTCJaM-116">
          <mxGeometry relative="1" as="geometry" />
        </mxCell>
        <mxCell id="dH81x7TGgG7tPerTCJaM-121" style="edgeStyle=orthogonalEdgeStyle;shape=connector;rounded=0;orthogonalLoop=1;jettySize=auto;html=1;exitX=0;exitY=0.75;exitDx=0;exitDy=0;entryX=1;entryY=0.5;entryDx=0;entryDy=0;entryPerimeter=0;labelBackgroundColor=default;strokeColor=default;align=center;verticalAlign=middle;fontFamily=Helvetica;fontSize=11;fontColor=default;endArrow=none;endFill=0;" edge="1" parent="1" source="dH81x7TGgG7tPerTCJaM-119" target="dH81x7TGgG7tPerTCJaM-110">
          <mxGeometry relative="1" as="geometry" />
        </mxCell>
        <mxCell id="dH81x7TGgG7tPerTCJaM-123" value="" style="group" vertex="1" connectable="0" parent="1">
          <mxGeometry x="240" y="2400" width="120" height="400" as="geometry" />
        </mxCell>
        <mxCell id="dH81x7TGgG7tPerTCJaM-124" value="" style="endArrow=none;html=1;rounded=0;" edge="1" parent="dH81x7TGgG7tPerTCJaM-123">
          <mxGeometry width="50" height="50" relative="1" as="geometry">
            <mxPoint y="400" as="sourcePoint" />
            <mxPoint as="targetPoint" />
          </mxGeometry>
        </mxCell>
        <mxCell id="dH81x7TGgG7tPerTCJaM-125" value="" style="endArrow=none;html=1;rounded=0;" edge="1" parent="dH81x7TGgG7tPerTCJaM-123">
          <mxGeometry width="50" height="50" relative="1" as="geometry">
            <mxPoint x="80" y="320" as="sourcePoint" />
            <mxPoint y="400" as="targetPoint" />
          </mxGeometry>
        </mxCell>
        <mxCell id="dH81x7TGgG7tPerTCJaM-126" value="" style="endArrow=none;html=1;rounded=0;" edge="1" parent="dH81x7TGgG7tPerTCJaM-123">
          <mxGeometry width="50" height="50" relative="1" as="geometry">
            <mxPoint x="80" y="80" as="sourcePoint" />
            <mxPoint as="targetPoint" />
          </mxGeometry>
        </mxCell>
        <mxCell id="dH81x7TGgG7tPerTCJaM-127" value="" style="endArrow=none;html=1;rounded=0;" edge="1" parent="dH81x7TGgG7tPerTCJaM-123">
          <mxGeometry width="50" height="50" relative="1" as="geometry">
            <mxPoint x="80" y="320" as="sourcePoint" />
            <mxPoint x="80" y="80" as="targetPoint" />
          </mxGeometry>
        </mxCell>
        <mxCell id="dH81x7TGgG7tPerTCJaM-128" value="" style="endArrow=none;html=1;rounded=0;" edge="1" parent="dH81x7TGgG7tPerTCJaM-123">
          <mxGeometry width="50" height="50" relative="1" as="geometry">
            <mxPoint x="120" y="200" as="sourcePoint" />
            <mxPoint x="80" y="200" as="targetPoint" />
          </mxGeometry>
        </mxCell>
        <mxCell id="dH81x7TGgG7tPerTCJaM-129" value="0" style="text;html=1;strokeColor=none;fillColor=none;align=center;verticalAlign=middle;whiteSpace=wrap;rounded=0;" vertex="1" parent="dH81x7TGgG7tPerTCJaM-123">
          <mxGeometry y="50" width="20" height="60" as="geometry" />
        </mxCell>
        <mxCell id="dH81x7TGgG7tPerTCJaM-130" value="1" style="text;html=1;strokeColor=none;fillColor=none;align=center;verticalAlign=middle;whiteSpace=wrap;rounded=0;" vertex="1" parent="dH81x7TGgG7tPerTCJaM-123">
          <mxGeometry y="128" width="20" height="60" as="geometry" />
        </mxCell>
        <mxCell id="dH81x7TGgG7tPerTCJaM-131" value="2" style="text;html=1;strokeColor=none;fillColor=none;align=center;verticalAlign=middle;whiteSpace=wrap;rounded=0;" vertex="1" parent="dH81x7TGgG7tPerTCJaM-123">
          <mxGeometry y="210" width="20" height="60" as="geometry" />
        </mxCell>
        <mxCell id="dH81x7TGgG7tPerTCJaM-132" value="3" style="text;html=1;strokeColor=none;fillColor=none;align=center;verticalAlign=middle;whiteSpace=wrap;rounded=0;" vertex="1" parent="dH81x7TGgG7tPerTCJaM-123">
          <mxGeometry y="288" width="20" height="60" as="geometry" />
        </mxCell>
        <mxCell id="dH81x7TGgG7tPerTCJaM-133" value="SEL" style="text;html=1;strokeColor=none;fillColor=none;align=center;verticalAlign=middle;whiteSpace=wrap;rounded=0;fontSize=11;fontFamily=Helvetica;fontColor=default;rotation=270;" vertex="1" parent="dH81x7TGgG7tPerTCJaM-123">
          <mxGeometry x="15" y="50" width="50" height="30" as="geometry" />
        </mxCell>
        <mxCell id="dH81x7TGgG7tPerTCJaM-143" style="edgeStyle=orthogonalEdgeStyle;shape=connector;rounded=0;orthogonalLoop=1;jettySize=auto;html=1;exitX=0;exitY=0.17;exitDx=0;exitDy=0;exitPerimeter=0;labelBackgroundColor=default;strokeColor=default;align=center;verticalAlign=middle;fontFamily=Helvetica;fontSize=11;fontColor=default;endArrow=oval;endFill=1;" edge="1" parent="1" source="dH81x7TGgG7tPerTCJaM-137">
          <mxGeometry relative="1" as="geometry">
            <mxPoint x="-240" y="1520" as="targetPoint" />
          </mxGeometry>
        </mxCell>
        <mxCell id="dH81x7TGgG7tPerTCJaM-146" value="OPA(7)" style="edgeLabel;html=1;align=center;verticalAlign=middle;resizable=0;points=[];fontSize=11;fontFamily=Helvetica;fontColor=default;" vertex="1" connectable="0" parent="dH81x7TGgG7tPerTCJaM-143">
          <mxGeometry x="-0.7185" y="1" relative="1" as="geometry">
            <mxPoint x="7" y="-1" as="offset" />
          </mxGeometry>
        </mxCell>
        <mxCell id="dH81x7TGgG7tPerTCJaM-144" style="edgeStyle=orthogonalEdgeStyle;shape=connector;rounded=0;orthogonalLoop=1;jettySize=auto;html=1;exitX=0;exitY=0.5;exitDx=0;exitDy=0;exitPerimeter=0;labelBackgroundColor=default;strokeColor=default;align=center;verticalAlign=middle;fontFamily=Helvetica;fontSize=11;fontColor=default;endArrow=oval;endFill=1;" edge="1" parent="1" source="dH81x7TGgG7tPerTCJaM-137">
          <mxGeometry relative="1" as="geometry">
            <mxPoint x="-280" y="1400" as="targetPoint" />
          </mxGeometry>
        </mxCell>
        <mxCell id="dH81x7TGgG7tPerTCJaM-145" value="OPB/K (7)" style="edgeLabel;html=1;align=center;verticalAlign=middle;resizable=0;points=[];fontSize=11;fontFamily=Helvetica;fontColor=default;" vertex="1" connectable="0" parent="dH81x7TGgG7tPerTCJaM-144">
          <mxGeometry x="-0.793" y="1" relative="1" as="geometry">
            <mxPoint as="offset" />
          </mxGeometry>
        </mxCell>
        <mxCell id="dH81x7TGgG7tPerTCJaM-137" value="and" style="verticalLabelPosition=bottom;shadow=0;dashed=0;align=center;html=1;verticalAlign=top;shape=mxgraph.electrical.iec_logic_gates.and;points=[[0,0.17,0,0,0],[0,0.5,0,0,0],[0,0.83,0,0,0],[1,0.5,0,0,0]];" vertex="1" parent="1">
          <mxGeometry x="-40" y="2060" width="60" height="120" as="geometry" />
        </mxCell>
        <mxCell id="dH81x7TGgG7tPerTCJaM-155" style="edgeStyle=orthogonalEdgeStyle;shape=connector;rounded=0;orthogonalLoop=1;jettySize=auto;html=1;exitX=0;exitY=0.83;exitDx=0;exitDy=0;exitPerimeter=0;labelBackgroundColor=default;strokeColor=default;align=center;verticalAlign=middle;fontFamily=Helvetica;fontSize=11;fontColor=default;endArrow=oval;endFill=1;" edge="1" parent="1" source="dH81x7TGgG7tPerTCJaM-138">
          <mxGeometry relative="1" as="geometry">
            <mxPoint x="-200" y="2160" as="targetPoint" />
          </mxGeometry>
        </mxCell>
        <mxCell id="dH81x7TGgG7tPerTCJaM-156" value="ERG (7)" style="edgeLabel;html=1;align=center;verticalAlign=middle;resizable=0;points=[];fontSize=11;fontFamily=Helvetica;fontColor=default;" vertex="1" connectable="0" parent="dH81x7TGgG7tPerTCJaM-155">
          <mxGeometry x="-0.3921" relative="1" as="geometry">
            <mxPoint as="offset" />
          </mxGeometry>
        </mxCell>
        <mxCell id="dH81x7TGgG7tPerTCJaM-138" value="and" style="verticalLabelPosition=bottom;shadow=0;dashed=0;align=center;html=1;verticalAlign=top;shape=mxgraph.electrical.iec_logic_gates.and;points=[[0,0.17,0,0,0],[0,0.5,0,0,0],[0,0.83,0,0,0],[1,0.5,0,0,0]];" vertex="1" parent="1">
          <mxGeometry x="-40" y="2220" width="60" height="120" as="geometry" />
        </mxCell>
        <mxCell id="dH81x7TGgG7tPerTCJaM-142" style="edgeStyle=orthogonalEdgeStyle;shape=connector;rounded=0;orthogonalLoop=1;jettySize=auto;html=1;exitX=1;exitY=0.5;exitDx=0;exitDy=0;exitPerimeter=0;entryX=0;entryY=0.5;entryDx=0;entryDy=0;labelBackgroundColor=default;strokeColor=default;align=center;verticalAlign=middle;fontFamily=Helvetica;fontSize=11;fontColor=default;endArrow=none;endFill=0;" edge="1" parent="1" source="dH81x7TGgG7tPerTCJaM-139" target="dH81x7TGgG7tPerTCJaM-129">
          <mxGeometry relative="1" as="geometry" />
        </mxCell>
        <mxCell id="dH81x7TGgG7tPerTCJaM-139" value="or" style="verticalLabelPosition=bottom;shadow=0;dashed=0;align=center;html=1;verticalAlign=top;shape=mxgraph.electrical.iec_logic_gates.or;points=[[0,0.25,0,0,0],[0,0.5,0,0,0],[0,0.74,0,0,0],[1,0.5,0,0,0]];" vertex="1" parent="1">
          <mxGeometry x="120" y="2170" width="60" height="80" as="geometry" />
        </mxCell>
        <mxCell id="dH81x7TGgG7tPerTCJaM-140" style="edgeStyle=orthogonalEdgeStyle;shape=connector;rounded=0;orthogonalLoop=1;jettySize=auto;html=1;exitX=1;exitY=0.5;exitDx=0;exitDy=0;exitPerimeter=0;entryX=0;entryY=0.74;entryDx=0;entryDy=0;entryPerimeter=0;labelBackgroundColor=default;strokeColor=default;align=center;verticalAlign=middle;fontFamily=Helvetica;fontSize=11;fontColor=default;endArrow=none;endFill=0;" edge="1" parent="1" source="dH81x7TGgG7tPerTCJaM-138" target="dH81x7TGgG7tPerTCJaM-139">
          <mxGeometry relative="1" as="geometry" />
        </mxCell>
        <mxCell id="dH81x7TGgG7tPerTCJaM-141" style="edgeStyle=orthogonalEdgeStyle;shape=connector;rounded=0;orthogonalLoop=1;jettySize=auto;html=1;exitX=1;exitY=0.5;exitDx=0;exitDy=0;exitPerimeter=0;entryX=0;entryY=0.25;entryDx=0;entryDy=0;entryPerimeter=0;labelBackgroundColor=default;strokeColor=default;align=center;verticalAlign=middle;fontFamily=Helvetica;fontSize=11;fontColor=default;endArrow=none;endFill=0;" edge="1" parent="1" source="dH81x7TGgG7tPerTCJaM-137" target="dH81x7TGgG7tPerTCJaM-139">
          <mxGeometry relative="1" as="geometry" />
        </mxCell>
        <mxCell id="dH81x7TGgG7tPerTCJaM-148" style="edgeStyle=orthogonalEdgeStyle;shape=connector;rounded=0;orthogonalLoop=1;jettySize=auto;html=1;entryX=0;entryY=0.75;entryDx=0;entryDy=0;entryPerimeter=0;labelBackgroundColor=default;strokeColor=default;align=center;verticalAlign=middle;fontFamily=Helvetica;fontSize=11;fontColor=default;endArrow=circle;endFill=0;startArrow=oval;startFill=1;" edge="1" parent="1">
          <mxGeometry relative="1" as="geometry">
            <mxPoint x="-200" y="1560" as="sourcePoint" />
            <mxPoint x="-40" y="2160" as="targetPoint" />
            <Array as="points">
              <mxPoint x="-200" y="2160" />
            </Array>
          </mxGeometry>
        </mxCell>
        <mxCell id="dH81x7TGgG7tPerTCJaM-150" value="ERG (7)" style="edgeLabel;html=1;align=center;verticalAlign=middle;resizable=0;points=[];fontSize=11;fontFamily=Helvetica;fontColor=default;" vertex="1" connectable="0" parent="dH81x7TGgG7tPerTCJaM-148">
          <mxGeometry x="0.6994" y="2" relative="1" as="geometry">
            <mxPoint x="14" y="2" as="offset" />
          </mxGeometry>
        </mxCell>
        <mxCell id="dH81x7TGgG7tPerTCJaM-151" style="edgeStyle=orthogonalEdgeStyle;shape=connector;rounded=0;orthogonalLoop=1;jettySize=auto;html=1;entryX=0;entryY=0.75;entryDx=0;entryDy=0;entryPerimeter=0;labelBackgroundColor=default;strokeColor=default;align=center;verticalAlign=middle;fontFamily=Helvetica;fontSize=11;fontColor=default;endArrow=circle;endFill=0;startArrow=oval;startFill=1;" edge="1" parent="1">
          <mxGeometry relative="1" as="geometry">
            <mxPoint x="-240" y="2080" as="sourcePoint" />
            <mxPoint x="-40" y="2240" as="targetPoint" />
            <Array as="points">
              <mxPoint x="-240" y="2111" />
              <mxPoint x="-240" y="2240" />
            </Array>
          </mxGeometry>
        </mxCell>
        <mxCell id="dH81x7TGgG7tPerTCJaM-152" value="OPA (7)" style="edgeLabel;html=1;align=center;verticalAlign=middle;resizable=0;points=[];fontSize=11;fontFamily=Helvetica;fontColor=default;" vertex="1" connectable="0" parent="dH81x7TGgG7tPerTCJaM-151">
          <mxGeometry x="0.6994" y="2" relative="1" as="geometry">
            <mxPoint x="-46" y="2" as="offset" />
          </mxGeometry>
        </mxCell>
        <mxCell id="dH81x7TGgG7tPerTCJaM-153" style="edgeStyle=orthogonalEdgeStyle;shape=connector;rounded=0;orthogonalLoop=1;jettySize=auto;html=1;entryX=0;entryY=0.75;entryDx=0;entryDy=0;entryPerimeter=0;labelBackgroundColor=default;strokeColor=default;align=center;verticalAlign=middle;fontFamily=Helvetica;fontSize=11;fontColor=default;endArrow=circle;endFill=0;startArrow=oval;startFill=1;" edge="1" parent="1">
          <mxGeometry relative="1" as="geometry">
            <mxPoint x="-280" y="2120" as="sourcePoint" />
            <mxPoint x="-40" y="2280" as="targetPoint" />
            <Array as="points">
              <mxPoint x="-280" y="2280" />
            </Array>
          </mxGeometry>
        </mxCell>
        <mxCell id="dH81x7TGgG7tPerTCJaM-154" value="OPB/K (7)" style="edgeLabel;html=1;align=center;verticalAlign=middle;resizable=0;points=[];fontSize=11;fontFamily=Helvetica;fontColor=default;" vertex="1" connectable="0" parent="dH81x7TGgG7tPerTCJaM-153">
          <mxGeometry x="0.6994" y="2" relative="1" as="geometry">
            <mxPoint x="-40" y="2" as="offset" />
          </mxGeometry>
        </mxCell>
        <mxCell id="dH81x7TGgG7tPerTCJaM-160" style="edgeStyle=orthogonalEdgeStyle;shape=connector;rounded=0;orthogonalLoop=1;jettySize=auto;html=1;exitX=0;exitY=0.17;exitDx=0;exitDy=0;exitPerimeter=0;labelBackgroundColor=default;strokeColor=default;align=center;verticalAlign=middle;fontFamily=Helvetica;fontSize=11;fontColor=default;endArrow=oval;endFill=1;" edge="1" parent="1" source="dH81x7TGgG7tPerTCJaM-157">
          <mxGeometry relative="1" as="geometry">
            <mxPoint x="-240" y="2240" as="targetPoint" />
          </mxGeometry>
        </mxCell>
        <mxCell id="dH81x7TGgG7tPerTCJaM-167" value="OPA (7)" style="edgeLabel;html=1;align=center;verticalAlign=middle;resizable=0;points=[];fontSize=11;fontFamily=Helvetica;fontColor=default;" vertex="1" connectable="0" parent="dH81x7TGgG7tPerTCJaM-160">
          <mxGeometry x="-0.401" y="3" relative="1" as="geometry">
            <mxPoint x="8" y="-3" as="offset" />
          </mxGeometry>
        </mxCell>
        <mxCell id="dH81x7TGgG7tPerTCJaM-157" value="and" style="verticalLabelPosition=bottom;shadow=0;dashed=0;align=center;html=1;verticalAlign=top;shape=mxgraph.electrical.iec_logic_gates.and;points=[[0,0.17,0,0,0],[0,0.5,0,0,0],[0,0.83,0,0,0],[1,0.5,0,0,0]];" vertex="1" parent="1">
          <mxGeometry x="-40" y="2380" width="60" height="120" as="geometry" />
        </mxCell>
        <mxCell id="dH81x7TGgG7tPerTCJaM-170" style="edgeStyle=orthogonalEdgeStyle;shape=connector;rounded=0;orthogonalLoop=1;jettySize=auto;html=1;exitX=0;exitY=0.5;exitDx=0;exitDy=0;exitPerimeter=0;labelBackgroundColor=default;strokeColor=default;align=center;verticalAlign=middle;fontFamily=Helvetica;fontSize=11;fontColor=default;endArrow=oval;endFill=1;" edge="1" parent="1" source="dH81x7TGgG7tPerTCJaM-158">
          <mxGeometry relative="1" as="geometry">
            <mxPoint x="-280" y="2440" as="targetPoint" />
          </mxGeometry>
        </mxCell>
        <mxCell id="dH81x7TGgG7tPerTCJaM-182" value="OPB/K (7)" style="edgeLabel;html=1;align=center;verticalAlign=middle;resizable=0;points=[];fontSize=11;fontFamily=Helvetica;fontColor=default;" vertex="1" connectable="0" parent="dH81x7TGgG7tPerTCJaM-170">
          <mxGeometry x="-0.4901" y="1" relative="1" as="geometry">
            <mxPoint x="12" y="-1" as="offset" />
          </mxGeometry>
        </mxCell>
        <mxCell id="dH81x7TGgG7tPerTCJaM-171" style="edgeStyle=orthogonalEdgeStyle;shape=connector;rounded=0;orthogonalLoop=1;jettySize=auto;html=1;exitX=0;exitY=0.83;exitDx=0;exitDy=0;exitPerimeter=0;labelBackgroundColor=default;strokeColor=default;align=center;verticalAlign=middle;fontFamily=Helvetica;fontSize=11;fontColor=default;endArrow=oval;endFill=1;" edge="1" parent="1" source="dH81x7TGgG7tPerTCJaM-158">
          <mxGeometry relative="1" as="geometry">
            <mxPoint x="-200" y="2480" as="targetPoint" />
          </mxGeometry>
        </mxCell>
        <mxCell id="dH81x7TGgG7tPerTCJaM-181" value="ERG (7)" style="edgeLabel;html=1;align=center;verticalAlign=middle;resizable=0;points=[];fontSize=11;fontFamily=Helvetica;fontColor=default;" vertex="1" connectable="0" parent="dH81x7TGgG7tPerTCJaM-171">
          <mxGeometry x="-0.3831" relative="1" as="geometry">
            <mxPoint x="8" as="offset" />
          </mxGeometry>
        </mxCell>
        <mxCell id="dH81x7TGgG7tPerTCJaM-158" value="and" style="verticalLabelPosition=bottom;shadow=0;dashed=0;align=center;html=1;verticalAlign=top;shape=mxgraph.electrical.iec_logic_gates.and;points=[[0,0.17,0,0,0],[0,0.5,0,0,0],[0,0.83,0,0,0],[1,0.5,0,0,0]];" vertex="1" parent="1">
          <mxGeometry x="-40" y="2540" width="60" height="120" as="geometry" />
        </mxCell>
        <mxCell id="dH81x7TGgG7tPerTCJaM-174" style="edgeStyle=orthogonalEdgeStyle;shape=connector;rounded=0;orthogonalLoop=1;jettySize=auto;html=1;exitX=1;exitY=0.5;exitDx=0;exitDy=0;exitPerimeter=0;entryX=0;entryY=0.5;entryDx=0;entryDy=0;labelBackgroundColor=default;strokeColor=default;align=center;verticalAlign=middle;fontFamily=Helvetica;fontSize=11;fontColor=default;endArrow=none;endFill=0;" edge="1" parent="1" source="dH81x7TGgG7tPerTCJaM-159" target="dH81x7TGgG7tPerTCJaM-130">
          <mxGeometry relative="1" as="geometry" />
        </mxCell>
        <mxCell id="dH81x7TGgG7tPerTCJaM-159" value="or" style="verticalLabelPosition=bottom;shadow=0;dashed=0;align=center;html=1;verticalAlign=top;shape=mxgraph.electrical.iec_logic_gates.or;points=[[0,0.25,0,0,0],[0,0.5,0,0,0],[0,0.74,0,0,0],[1,0.5,0,0,0]];" vertex="1" parent="1">
          <mxGeometry x="80" y="2500" width="60" height="80" as="geometry" />
        </mxCell>
        <mxCell id="dH81x7TGgG7tPerTCJaM-161" style="edgeStyle=orthogonalEdgeStyle;shape=connector;rounded=0;orthogonalLoop=1;jettySize=auto;html=1;entryX=0;entryY=0.75;entryDx=0;entryDy=0;entryPerimeter=0;labelBackgroundColor=default;strokeColor=default;align=center;verticalAlign=middle;fontFamily=Helvetica;fontSize=11;fontColor=default;endArrow=circle;endFill=0;startArrow=oval;startFill=1;" edge="1" parent="1">
          <mxGeometry relative="1" as="geometry">
            <mxPoint x="-280" y="2280" as="sourcePoint" />
            <mxPoint x="-40" y="2440" as="targetPoint" />
            <Array as="points">
              <mxPoint x="-280" y="2440" />
            </Array>
          </mxGeometry>
        </mxCell>
        <mxCell id="dH81x7TGgG7tPerTCJaM-162" value="OPB/K (7)" style="edgeLabel;html=1;align=center;verticalAlign=middle;resizable=0;points=[];fontSize=11;fontFamily=Helvetica;fontColor=default;" vertex="1" connectable="0" parent="dH81x7TGgG7tPerTCJaM-161">
          <mxGeometry x="0.6994" y="2" relative="1" as="geometry">
            <mxPoint x="-40" y="2" as="offset" />
          </mxGeometry>
        </mxCell>
        <mxCell id="dH81x7TGgG7tPerTCJaM-165" style="edgeStyle=orthogonalEdgeStyle;shape=connector;rounded=0;orthogonalLoop=1;jettySize=auto;html=1;entryX=0;entryY=0.75;entryDx=0;entryDy=0;entryPerimeter=0;labelBackgroundColor=default;strokeColor=default;align=center;verticalAlign=middle;fontFamily=Helvetica;fontSize=11;fontColor=default;endArrow=circle;endFill=0;startArrow=oval;startFill=1;" edge="1" parent="1">
          <mxGeometry relative="1" as="geometry">
            <mxPoint x="-200" y="2320" as="sourcePoint" />
            <mxPoint x="-40" y="2480" as="targetPoint" />
            <Array as="points">
              <mxPoint x="-200" y="2480" />
            </Array>
          </mxGeometry>
        </mxCell>
        <mxCell id="dH81x7TGgG7tPerTCJaM-166" value="ERG (7)" style="edgeLabel;html=1;align=center;verticalAlign=middle;resizable=0;points=[];fontSize=11;fontFamily=Helvetica;fontColor=default;" vertex="1" connectable="0" parent="dH81x7TGgG7tPerTCJaM-165">
          <mxGeometry x="0.6994" y="2" relative="1" as="geometry">
            <mxPoint x="-52" y="2" as="offset" />
          </mxGeometry>
        </mxCell>
        <mxCell id="dH81x7TGgG7tPerTCJaM-168" style="edgeStyle=orthogonalEdgeStyle;shape=connector;rounded=0;orthogonalLoop=1;jettySize=auto;html=1;entryX=0;entryY=0.75;entryDx=0;entryDy=0;entryPerimeter=0;labelBackgroundColor=default;strokeColor=default;align=center;verticalAlign=middle;fontFamily=Helvetica;fontSize=11;fontColor=default;endArrow=circle;endFill=0;startArrow=oval;startFill=1;" edge="1" parent="1">
          <mxGeometry relative="1" as="geometry">
            <mxPoint x="-240" y="2400" as="sourcePoint" />
            <mxPoint x="-40" y="2560" as="targetPoint" />
            <Array as="points">
              <mxPoint x="-240" y="2560" />
            </Array>
          </mxGeometry>
        </mxCell>
        <mxCell id="dH81x7TGgG7tPerTCJaM-169" value="OPA (7)" style="edgeLabel;html=1;align=center;verticalAlign=middle;resizable=0;points=[];fontSize=11;fontFamily=Helvetica;fontColor=default;" vertex="1" connectable="0" parent="dH81x7TGgG7tPerTCJaM-168">
          <mxGeometry x="0.6994" y="2" relative="1" as="geometry">
            <mxPoint x="-36" y="2" as="offset" />
          </mxGeometry>
        </mxCell>
        <mxCell id="dH81x7TGgG7tPerTCJaM-172" style="edgeStyle=orthogonalEdgeStyle;shape=connector;rounded=0;orthogonalLoop=1;jettySize=auto;html=1;exitX=1;exitY=0.5;exitDx=0;exitDy=0;exitPerimeter=0;entryX=0;entryY=0.74;entryDx=0;entryDy=0;entryPerimeter=0;labelBackgroundColor=default;strokeColor=default;align=center;verticalAlign=middle;fontFamily=Helvetica;fontSize=11;fontColor=default;endArrow=none;endFill=0;" edge="1" parent="1" source="dH81x7TGgG7tPerTCJaM-158" target="dH81x7TGgG7tPerTCJaM-159">
          <mxGeometry relative="1" as="geometry" />
        </mxCell>
        <mxCell id="dH81x7TGgG7tPerTCJaM-173" style="edgeStyle=orthogonalEdgeStyle;shape=connector;rounded=0;orthogonalLoop=1;jettySize=auto;html=1;exitX=1;exitY=0.5;exitDx=0;exitDy=0;exitPerimeter=0;entryX=0;entryY=0.25;entryDx=0;entryDy=0;entryPerimeter=0;labelBackgroundColor=default;strokeColor=default;align=center;verticalAlign=middle;fontFamily=Helvetica;fontSize=11;fontColor=default;endArrow=none;endFill=0;" edge="1" parent="1" source="dH81x7TGgG7tPerTCJaM-157" target="dH81x7TGgG7tPerTCJaM-159">
          <mxGeometry relative="1" as="geometry" />
        </mxCell>
        <mxCell id="dH81x7TGgG7tPerTCJaM-176" style="edgeStyle=orthogonalEdgeStyle;shape=connector;rounded=0;orthogonalLoop=1;jettySize=auto;html=1;exitX=1;exitY=0.5;exitDx=0;exitDy=0;entryX=0;entryY=0.5;entryDx=0;entryDy=0;labelBackgroundColor=default;strokeColor=default;align=center;verticalAlign=middle;fontFamily=Helvetica;fontSize=11;fontColor=default;endArrow=none;endFill=0;" edge="1" parent="1" source="dH81x7TGgG7tPerTCJaM-175" target="dH81x7TGgG7tPerTCJaM-131">
          <mxGeometry relative="1" as="geometry" />
        </mxCell>
        <mxCell id="dH81x7TGgG7tPerTCJaM-175" value="0" style="whiteSpace=wrap;html=1;aspect=fixed;fontFamily=Helvetica;fontSize=11;fontColor=default;" vertex="1" parent="1">
          <mxGeometry x="90" y="2620" width="40" height="40" as="geometry" />
        </mxCell>
        <mxCell id="dH81x7TGgG7tPerTCJaM-178" style="edgeStyle=orthogonalEdgeStyle;shape=connector;rounded=0;orthogonalLoop=1;jettySize=auto;html=1;exitX=1;exitY=0.5;exitDx=0;exitDy=0;exitPerimeter=0;entryX=0;entryY=0.5;entryDx=0;entryDy=0;labelBackgroundColor=default;strokeColor=default;align=center;verticalAlign=middle;fontFamily=Helvetica;fontSize=11;fontColor=default;endArrow=none;endFill=0;" edge="1" parent="1" source="dH81x7TGgG7tPerTCJaM-177" target="dH81x7TGgG7tPerTCJaM-132">
          <mxGeometry relative="1" as="geometry" />
        </mxCell>
        <mxCell id="dH81x7TGgG7tPerTCJaM-179" style="edgeStyle=orthogonalEdgeStyle;shape=connector;rounded=0;orthogonalLoop=1;jettySize=auto;html=1;exitX=0;exitY=0.24;exitDx=0;exitDy=0;exitPerimeter=0;labelBackgroundColor=default;strokeColor=default;align=center;verticalAlign=middle;fontFamily=Helvetica;fontSize=11;fontColor=default;endArrow=oval;endFill=1;" edge="1" parent="1" source="dH81x7TGgG7tPerTCJaM-177">
          <mxGeometry relative="1" as="geometry">
            <mxPoint x="-200" y="2640" as="targetPoint" />
          </mxGeometry>
        </mxCell>
        <mxCell id="dH81x7TGgG7tPerTCJaM-183" value="ERG (7)" style="edgeLabel;html=1;align=center;verticalAlign=middle;resizable=0;points=[];fontSize=11;fontFamily=Helvetica;fontColor=default;" vertex="1" connectable="0" parent="dH81x7TGgG7tPerTCJaM-179">
          <mxGeometry x="-0.2519" y="-1" relative="1" as="geometry">
            <mxPoint as="offset" />
          </mxGeometry>
        </mxCell>
        <mxCell id="dH81x7TGgG7tPerTCJaM-180" style="edgeStyle=orthogonalEdgeStyle;shape=connector;rounded=0;orthogonalLoop=1;jettySize=auto;html=1;exitX=0;exitY=0.75;exitDx=0;exitDy=0;exitPerimeter=0;labelBackgroundColor=default;strokeColor=default;align=center;verticalAlign=middle;fontFamily=Helvetica;fontSize=11;fontColor=default;endArrow=oval;endFill=1;" edge="1" parent="1" source="dH81x7TGgG7tPerTCJaM-177">
          <mxGeometry relative="1" as="geometry">
            <mxPoint x="-320" y="1619.9999999999995" as="targetPoint" />
          </mxGeometry>
        </mxCell>
        <mxCell id="dH81x7TGgG7tPerTCJaM-184" value="OPA (0)" style="edgeLabel;html=1;align=center;verticalAlign=middle;resizable=0;points=[];fontSize=11;fontFamily=Helvetica;fontColor=default;" vertex="1" connectable="0" parent="dH81x7TGgG7tPerTCJaM-180">
          <mxGeometry x="-0.8645" y="1" relative="1" as="geometry">
            <mxPoint x="6" as="offset" />
          </mxGeometry>
        </mxCell>
        <mxCell id="dH81x7TGgG7tPerTCJaM-177" value="xor" style="verticalLabelPosition=bottom;shadow=0;dashed=0;align=center;html=1;verticalAlign=top;shape=mxgraph.electrical.iec_logic_gates.not_2;fontFamily=Helvetica;fontSize=11;fontColor=default;points=[[0,0.24,0,0,0],[0,0.5,0,0,0],[0,0.75,0,0,0],[1,0.5,0,0,0]];" vertex="1" parent="1">
          <mxGeometry x="-40" y="2700" width="66" height="80" as="geometry" />
        </mxCell>
        <mxCell id="dH81x7TGgG7tPerTCJaM-188" style="edgeStyle=orthogonalEdgeStyle;shape=connector;rounded=0;orthogonalLoop=1;jettySize=auto;html=1;exitX=0;exitY=0.5;exitDx=0;exitDy=0;labelBackgroundColor=default;strokeColor=default;align=center;verticalAlign=middle;fontFamily=Helvetica;fontSize=11;fontColor=default;endArrow=oval;endFill=1;" edge="1" parent="1" source="dH81x7TGgG7tPerTCJaM-187">
          <mxGeometry relative="1" as="geometry">
            <mxPoint x="920" y="639.8095238095236" as="targetPoint" />
          </mxGeometry>
        </mxCell>
        <mxCell id="dH81x7TGgG7tPerTCJaM-187" value="7:7" style="whiteSpace=wrap;html=1;aspect=fixed;fontFamily=Helvetica;fontSize=11;fontColor=default;" vertex="1" parent="1">
          <mxGeometry x="1040" y="620" width="40" height="40" as="geometry" />
        </mxCell>
        <mxCell id="dH81x7TGgG7tPerTCJaM-186" style="edgeStyle=orthogonalEdgeStyle;shape=connector;rounded=0;orthogonalLoop=1;jettySize=auto;html=1;exitX=0;exitY=0.5;exitDx=0;exitDy=0;labelBackgroundColor=default;strokeColor=default;align=center;verticalAlign=middle;fontFamily=Helvetica;fontSize=11;fontColor=default;endArrow=none;endFill=0;entryX=1;entryY=0.5;entryDx=0;entryDy=0;" edge="1" parent="1" source="dH81x7TGgG7tPerTCJaM-94" target="dH81x7TGgG7tPerTCJaM-187">
          <mxGeometry relative="1" as="geometry">
            <mxPoint x="1087.6190476190477" y="639.8095238095236" as="targetPoint" />
          </mxGeometry>
        </mxCell>
        <mxCell id="dH81x7TGgG7tPerTCJaM-194" value="ERG (7)" style="edgeLabel;html=1;align=center;verticalAlign=middle;resizable=0;points=[];fontSize=11;fontFamily=Helvetica;fontColor=default;" vertex="1" connectable="0" parent="dH81x7TGgG7tPerTCJaM-186">
          <mxGeometry x="-0.5646" relative="1" as="geometry">
            <mxPoint as="offset" />
          </mxGeometry>
        </mxCell>
        <mxCell id="dH81x7TGgG7tPerTCJaM-190" style="edgeStyle=orthogonalEdgeStyle;shape=connector;rounded=0;orthogonalLoop=1;jettySize=auto;html=1;exitX=1;exitY=0.5;exitDx=0;exitDy=0;exitPerimeter=0;entryX=0;entryY=0.5;entryDx=0;entryDy=0;labelBackgroundColor=default;strokeColor=default;align=center;verticalAlign=middle;fontFamily=Helvetica;fontSize=11;fontColor=default;endArrow=none;endFill=0;" edge="1" parent="1" source="dH81x7TGgG7tPerTCJaM-189" target="dH81x7TGgG7tPerTCJaM-92">
          <mxGeometry relative="1" as="geometry" />
        </mxCell>
        <mxCell id="dH81x7TGgG7tPerTCJaM-193" value="V XOR N" style="edgeLabel;html=1;align=center;verticalAlign=middle;resizable=0;points=[];fontSize=11;fontFamily=Helvetica;fontColor=default;" vertex="1" connectable="0" parent="dH81x7TGgG7tPerTCJaM-190">
          <mxGeometry x="0.5061" y="1" relative="1" as="geometry">
            <mxPoint as="offset" />
          </mxGeometry>
        </mxCell>
        <mxCell id="dH81x7TGgG7tPerTCJaM-191" style="edgeStyle=orthogonalEdgeStyle;shape=connector;rounded=0;orthogonalLoop=1;jettySize=auto;html=1;exitX=0;exitY=0.75;exitDx=0;exitDy=0;exitPerimeter=0;labelBackgroundColor=default;strokeColor=default;align=center;verticalAlign=middle;fontFamily=Helvetica;fontSize=11;fontColor=default;endArrow=oval;endFill=1;" edge="1" parent="1" source="dH81x7TGgG7tPerTCJaM-189">
          <mxGeometry relative="1" as="geometry">
            <mxPoint x="1160" y="640" as="targetPoint" />
          </mxGeometry>
        </mxCell>
        <mxCell id="dH81x7TGgG7tPerTCJaM-192" style="edgeStyle=orthogonalEdgeStyle;shape=connector;rounded=0;orthogonalLoop=1;jettySize=auto;html=1;exitX=0;exitY=0.24;exitDx=0;exitDy=0;exitPerimeter=0;labelBackgroundColor=default;strokeColor=default;align=center;verticalAlign=middle;fontFamily=Helvetica;fontSize=11;fontColor=default;endArrow=oval;endFill=1;" edge="1" parent="1" source="dH81x7TGgG7tPerTCJaM-189">
          <mxGeometry relative="1" as="geometry">
            <mxPoint x="1280" y="680" as="targetPoint" />
            <Array as="points">
              <mxPoint x="1120" y="539" />
              <mxPoint x="1120" y="680" />
            </Array>
          </mxGeometry>
        </mxCell>
        <mxCell id="dH81x7TGgG7tPerTCJaM-189" value="xor" style="verticalLabelPosition=bottom;shadow=0;dashed=0;align=center;html=1;verticalAlign=top;shape=mxgraph.electrical.iec_logic_gates.not_2;fontFamily=Helvetica;fontSize=11;fontColor=default;points=[[0,0.24,0,0,0],[0,0.5,0,0,0],[0,0.75,0,0,0],[1,0.5,0,0,0]];" vertex="1" parent="1">
          <mxGeometry x="1180" y="520" width="66" height="80" as="geometry" />
        </mxCell>
        <mxCell id="dH81x7TGgG7tPerTCJaM-210" style="edgeStyle=orthogonalEdgeStyle;shape=connector;rounded=0;orthogonalLoop=1;jettySize=auto;html=1;exitX=0;exitY=0.5;exitDx=0;exitDy=0;labelBackgroundColor=default;strokeColor=default;align=center;verticalAlign=middle;fontFamily=Helvetica;fontSize=11;fontColor=default;endArrow=oval;endFill=1;" edge="1" parent="1" source="dH81x7TGgG7tPerTCJaM-195">
          <mxGeometry relative="1" as="geometry">
            <mxPoint x="-400" y="2860.04347826087" as="targetPoint" />
          </mxGeometry>
        </mxCell>
        <mxCell id="dH81x7TGgG7tPerTCJaM-195" value="7:7" style="whiteSpace=wrap;html=1;aspect=fixed;fontFamily=Helvetica;fontSize=11;fontColor=default;" vertex="1" parent="1">
          <mxGeometry x="-360" y="2840" width="40" height="40" as="geometry" />
        </mxCell>
        <mxCell id="dH81x7TGgG7tPerTCJaM-209" style="edgeStyle=orthogonalEdgeStyle;shape=connector;rounded=0;orthogonalLoop=1;jettySize=auto;html=1;exitX=0;exitY=0.5;exitDx=0;exitDy=0;labelBackgroundColor=default;strokeColor=default;align=center;verticalAlign=middle;fontFamily=Helvetica;fontSize=11;fontColor=default;endArrow=oval;endFill=1;" edge="1" parent="1" source="dH81x7TGgG7tPerTCJaM-196">
          <mxGeometry relative="1" as="geometry">
            <mxPoint x="-400" y="2940.04347826087" as="targetPoint" />
          </mxGeometry>
        </mxCell>
        <mxCell id="dH81x7TGgG7tPerTCJaM-196" value="6:6" style="whiteSpace=wrap;html=1;aspect=fixed;fontFamily=Helvetica;fontSize=11;fontColor=default;" vertex="1" parent="1">
          <mxGeometry x="-360" y="2920" width="40" height="40" as="geometry" />
        </mxCell>
        <mxCell id="dH81x7TGgG7tPerTCJaM-208" style="edgeStyle=orthogonalEdgeStyle;shape=connector;rounded=0;orthogonalLoop=1;jettySize=auto;html=1;exitX=0;exitY=0.5;exitDx=0;exitDy=0;labelBackgroundColor=default;strokeColor=default;align=center;verticalAlign=middle;fontFamily=Helvetica;fontSize=11;fontColor=default;endArrow=oval;endFill=1;" edge="1" parent="1" source="dH81x7TGgG7tPerTCJaM-197">
          <mxGeometry relative="1" as="geometry">
            <mxPoint x="-400" y="3020.04347826087" as="targetPoint" />
          </mxGeometry>
        </mxCell>
        <mxCell id="dH81x7TGgG7tPerTCJaM-197" value="5:5" style="whiteSpace=wrap;html=1;aspect=fixed;fontFamily=Helvetica;fontSize=11;fontColor=default;" vertex="1" parent="1">
          <mxGeometry x="-360" y="3000" width="40" height="40" as="geometry" />
        </mxCell>
        <mxCell id="dH81x7TGgG7tPerTCJaM-207" style="edgeStyle=orthogonalEdgeStyle;shape=connector;rounded=0;orthogonalLoop=1;jettySize=auto;html=1;exitX=0;exitY=0.5;exitDx=0;exitDy=0;labelBackgroundColor=default;strokeColor=default;align=center;verticalAlign=middle;fontFamily=Helvetica;fontSize=11;fontColor=default;endArrow=oval;endFill=1;" edge="1" parent="1" source="dH81x7TGgG7tPerTCJaM-198">
          <mxGeometry relative="1" as="geometry">
            <mxPoint x="-400" y="3100.04347826087" as="targetPoint" />
          </mxGeometry>
        </mxCell>
        <mxCell id="dH81x7TGgG7tPerTCJaM-198" value="4:4" style="whiteSpace=wrap;html=1;aspect=fixed;fontFamily=Helvetica;fontSize=11;fontColor=default;" vertex="1" parent="1">
          <mxGeometry x="-360" y="3080" width="40" height="40" as="geometry" />
        </mxCell>
        <mxCell id="dH81x7TGgG7tPerTCJaM-206" style="edgeStyle=orthogonalEdgeStyle;shape=connector;rounded=0;orthogonalLoop=1;jettySize=auto;html=1;exitX=0;exitY=0.5;exitDx=0;exitDy=0;labelBackgroundColor=default;strokeColor=default;align=center;verticalAlign=middle;fontFamily=Helvetica;fontSize=11;fontColor=default;endArrow=oval;endFill=1;" edge="1" parent="1" source="dH81x7TGgG7tPerTCJaM-199">
          <mxGeometry relative="1" as="geometry">
            <mxPoint x="-400" y="3180.04347826087" as="targetPoint" />
          </mxGeometry>
        </mxCell>
        <mxCell id="dH81x7TGgG7tPerTCJaM-199" value="3:3" style="whiteSpace=wrap;html=1;aspect=fixed;fontFamily=Helvetica;fontSize=11;fontColor=default;" vertex="1" parent="1">
          <mxGeometry x="-360" y="3160" width="40" height="40" as="geometry" />
        </mxCell>
        <mxCell id="dH81x7TGgG7tPerTCJaM-205" style="edgeStyle=orthogonalEdgeStyle;shape=connector;rounded=0;orthogonalLoop=1;jettySize=auto;html=1;exitX=0;exitY=0.5;exitDx=0;exitDy=0;labelBackgroundColor=default;strokeColor=default;align=center;verticalAlign=middle;fontFamily=Helvetica;fontSize=11;fontColor=default;endArrow=oval;endFill=1;" edge="1" parent="1" source="dH81x7TGgG7tPerTCJaM-200">
          <mxGeometry relative="1" as="geometry">
            <mxPoint x="-400" y="3260.04347826087" as="targetPoint" />
          </mxGeometry>
        </mxCell>
        <mxCell id="dH81x7TGgG7tPerTCJaM-200" value="2:2" style="whiteSpace=wrap;html=1;aspect=fixed;fontFamily=Helvetica;fontSize=11;fontColor=default;" vertex="1" parent="1">
          <mxGeometry x="-360" y="3240" width="40" height="40" as="geometry" />
        </mxCell>
        <mxCell id="dH81x7TGgG7tPerTCJaM-204" style="edgeStyle=orthogonalEdgeStyle;shape=connector;rounded=0;orthogonalLoop=1;jettySize=auto;html=1;exitX=0;exitY=0.5;exitDx=0;exitDy=0;labelBackgroundColor=default;strokeColor=default;align=center;verticalAlign=middle;fontFamily=Helvetica;fontSize=11;fontColor=default;endArrow=oval;endFill=1;" edge="1" parent="1" source="dH81x7TGgG7tPerTCJaM-201">
          <mxGeometry relative="1" as="geometry">
            <mxPoint x="-400" y="3340.04347826087" as="targetPoint" />
          </mxGeometry>
        </mxCell>
        <mxCell id="dH81x7TGgG7tPerTCJaM-201" value="1:1" style="whiteSpace=wrap;html=1;aspect=fixed;fontFamily=Helvetica;fontSize=11;fontColor=default;" vertex="1" parent="1">
          <mxGeometry x="-360" y="3320" width="40" height="40" as="geometry" />
        </mxCell>
        <mxCell id="dH81x7TGgG7tPerTCJaM-203" style="edgeStyle=orthogonalEdgeStyle;shape=connector;rounded=0;orthogonalLoop=1;jettySize=auto;html=1;exitX=0;exitY=0.5;exitDx=0;exitDy=0;labelBackgroundColor=default;strokeColor=default;align=center;verticalAlign=middle;fontFamily=Helvetica;fontSize=11;fontColor=default;endArrow=oval;endFill=1;" edge="1" parent="1" source="dH81x7TGgG7tPerTCJaM-202">
          <mxGeometry relative="1" as="geometry">
            <mxPoint x="-400" y="1080" as="targetPoint" />
          </mxGeometry>
        </mxCell>
        <mxCell id="dH81x7TGgG7tPerTCJaM-202" value="0:0" style="whiteSpace=wrap;html=1;aspect=fixed;fontFamily=Helvetica;fontSize=11;fontColor=default;" vertex="1" parent="1">
          <mxGeometry x="-360" y="3400" width="40" height="40" as="geometry" />
        </mxCell>
        <mxCell id="dH81x7TGgG7tPerTCJaM-221" style="edgeStyle=orthogonalEdgeStyle;shape=connector;rounded=0;orthogonalLoop=1;jettySize=auto;html=1;exitX=1;exitY=0.5;exitDx=0;exitDy=0;exitPerimeter=0;labelBackgroundColor=default;strokeColor=default;align=center;verticalAlign=middle;fontFamily=Helvetica;fontSize=11;fontColor=default;endArrow=oval;endFill=1;" edge="1" parent="1" source="dH81x7TGgG7tPerTCJaM-211" target="dH81x7TGgG7tPerTCJaM-220">
          <mxGeometry relative="1" as="geometry" />
        </mxCell>
        <mxCell id="dH81x7TGgG7tPerTCJaM-211" value="OR" style="rounded=0;whiteSpace=wrap;html=1;fontFamily=Helvetica;fontSize=11;fontColor=default;points=[[0,0,0,0,0],[0,0.11,0,0,0],[0,0.22,0,0,0],[0,0.25,0,0,0],[0,0.33,0,0,0],[0,0.44,0,0,0],[0,0.5,0,0,0],[0,0.56,0,0,0],[0,0.67,0,0,0],[0,0.75,0,0,0],[0,0.78,0,0,0],[0,0.89,0,0,0],[0,1,0,0,0],[0.25,0,0,0,0],[0.25,1,0,0,0],[0.5,0,0,0,0],[0.5,1,0,0,0],[0.75,0,0,0,0],[0.75,1,0,0,0],[1,0,0,0,0],[1,0.25,0,0,0],[1,0.5,0,0,0],[1,0.75,0,0,0],[1,1,0,0,0]];" vertex="1" parent="1">
          <mxGeometry x="-120" y="2960" width="120" height="360" as="geometry" />
        </mxCell>
        <mxCell id="dH81x7TGgG7tPerTCJaM-212" style="edgeStyle=orthogonalEdgeStyle;shape=connector;rounded=0;orthogonalLoop=1;jettySize=auto;html=1;exitX=1;exitY=0.5;exitDx=0;exitDy=0;entryX=0;entryY=0.89;entryDx=0;entryDy=0;entryPerimeter=0;labelBackgroundColor=default;strokeColor=default;align=center;verticalAlign=middle;fontFamily=Helvetica;fontSize=11;fontColor=default;endArrow=oval;endFill=1;" edge="1" parent="1" source="dH81x7TGgG7tPerTCJaM-202" target="dH81x7TGgG7tPerTCJaM-211">
          <mxGeometry relative="1" as="geometry">
            <Array as="points">
              <mxPoint x="-160" y="3420" />
              <mxPoint x="-160" y="3280" />
            </Array>
          </mxGeometry>
        </mxCell>
        <mxCell id="dH81x7TGgG7tPerTCJaM-213" style="edgeStyle=orthogonalEdgeStyle;shape=connector;rounded=0;orthogonalLoop=1;jettySize=auto;html=1;exitX=1;exitY=0.5;exitDx=0;exitDy=0;entryX=0;entryY=0.78;entryDx=0;entryDy=0;entryPerimeter=0;labelBackgroundColor=default;strokeColor=default;align=center;verticalAlign=middle;fontFamily=Helvetica;fontSize=11;fontColor=default;endArrow=oval;endFill=1;" edge="1" parent="1" source="dH81x7TGgG7tPerTCJaM-201" target="dH81x7TGgG7tPerTCJaM-211">
          <mxGeometry relative="1" as="geometry">
            <Array as="points">
              <mxPoint x="-200" y="3340" />
              <mxPoint x="-200" y="3241" />
            </Array>
          </mxGeometry>
        </mxCell>
        <mxCell id="dH81x7TGgG7tPerTCJaM-214" style="edgeStyle=orthogonalEdgeStyle;shape=connector;rounded=0;orthogonalLoop=1;jettySize=auto;html=1;exitX=1;exitY=0.5;exitDx=0;exitDy=0;entryX=0;entryY=0.67;entryDx=0;entryDy=0;entryPerimeter=0;labelBackgroundColor=default;strokeColor=default;align=center;verticalAlign=middle;fontFamily=Helvetica;fontSize=11;fontColor=default;endArrow=oval;endFill=1;" edge="1" parent="1" source="dH81x7TGgG7tPerTCJaM-200" target="dH81x7TGgG7tPerTCJaM-211">
          <mxGeometry relative="1" as="geometry">
            <Array as="points">
              <mxPoint x="-240" y="3260" />
              <mxPoint x="-240" y="3201" />
            </Array>
          </mxGeometry>
        </mxCell>
        <mxCell id="dH81x7TGgG7tPerTCJaM-215" style="edgeStyle=orthogonalEdgeStyle;shape=connector;rounded=0;orthogonalLoop=1;jettySize=auto;html=1;exitX=1;exitY=0.5;exitDx=0;exitDy=0;entryX=0;entryY=0.56;entryDx=0;entryDy=0;entryPerimeter=0;labelBackgroundColor=default;strokeColor=default;align=center;verticalAlign=middle;fontFamily=Helvetica;fontSize=11;fontColor=default;endArrow=oval;endFill=1;" edge="1" parent="1" source="dH81x7TGgG7tPerTCJaM-199" target="dH81x7TGgG7tPerTCJaM-211">
          <mxGeometry relative="1" as="geometry">
            <Array as="points">
              <mxPoint x="-280" y="3180" />
              <mxPoint x="-280" y="3162" />
            </Array>
          </mxGeometry>
        </mxCell>
        <mxCell id="dH81x7TGgG7tPerTCJaM-216" style="edgeStyle=orthogonalEdgeStyle;shape=connector;rounded=0;orthogonalLoop=1;jettySize=auto;html=1;exitX=1;exitY=0.5;exitDx=0;exitDy=0;entryX=0;entryY=0.44;entryDx=0;entryDy=0;entryPerimeter=0;labelBackgroundColor=default;strokeColor=default;align=center;verticalAlign=middle;fontFamily=Helvetica;fontSize=11;fontColor=default;endArrow=oval;endFill=1;" edge="1" parent="1" source="dH81x7TGgG7tPerTCJaM-198" target="dH81x7TGgG7tPerTCJaM-211">
          <mxGeometry relative="1" as="geometry">
            <Array as="points">
              <mxPoint x="-280" y="3100" />
              <mxPoint x="-280" y="3118" />
            </Array>
          </mxGeometry>
        </mxCell>
        <mxCell id="dH81x7TGgG7tPerTCJaM-217" style="edgeStyle=orthogonalEdgeStyle;shape=connector;rounded=0;orthogonalLoop=1;jettySize=auto;html=1;exitX=1;exitY=0.5;exitDx=0;exitDy=0;entryX=0;entryY=0.33;entryDx=0;entryDy=0;entryPerimeter=0;labelBackgroundColor=default;strokeColor=default;align=center;verticalAlign=middle;fontFamily=Helvetica;fontSize=11;fontColor=default;endArrow=oval;endFill=1;" edge="1" parent="1" source="dH81x7TGgG7tPerTCJaM-197" target="dH81x7TGgG7tPerTCJaM-211">
          <mxGeometry relative="1" as="geometry">
            <Array as="points">
              <mxPoint x="-240" y="3020" />
              <mxPoint x="-240" y="3079" />
            </Array>
          </mxGeometry>
        </mxCell>
        <mxCell id="dH81x7TGgG7tPerTCJaM-218" style="edgeStyle=orthogonalEdgeStyle;shape=connector;rounded=0;orthogonalLoop=1;jettySize=auto;html=1;exitX=1;exitY=0.5;exitDx=0;exitDy=0;entryX=0;entryY=0.22;entryDx=0;entryDy=0;entryPerimeter=0;labelBackgroundColor=default;strokeColor=default;align=center;verticalAlign=middle;fontFamily=Helvetica;fontSize=11;fontColor=default;endArrow=oval;endFill=1;" edge="1" parent="1" source="dH81x7TGgG7tPerTCJaM-196" target="dH81x7TGgG7tPerTCJaM-211">
          <mxGeometry relative="1" as="geometry">
            <Array as="points">
              <mxPoint x="-200" y="2940" />
              <mxPoint x="-200" y="3039" />
            </Array>
          </mxGeometry>
        </mxCell>
        <mxCell id="dH81x7TGgG7tPerTCJaM-219" style="edgeStyle=orthogonalEdgeStyle;shape=connector;rounded=0;orthogonalLoop=1;jettySize=auto;html=1;exitX=1;exitY=0.5;exitDx=0;exitDy=0;entryX=0;entryY=0.11;entryDx=0;entryDy=0;entryPerimeter=0;labelBackgroundColor=default;strokeColor=default;align=center;verticalAlign=middle;fontFamily=Helvetica;fontSize=11;fontColor=default;endArrow=oval;endFill=1;" edge="1" parent="1" source="dH81x7TGgG7tPerTCJaM-195" target="dH81x7TGgG7tPerTCJaM-211">
          <mxGeometry relative="1" as="geometry">
            <Array as="points">
              <mxPoint x="-160" y="2860" />
              <mxPoint x="-160" y="3000" />
            </Array>
          </mxGeometry>
        </mxCell>
        <mxCell id="dH81x7TGgG7tPerTCJaM-222" style="edgeStyle=orthogonalEdgeStyle;shape=connector;rounded=0;orthogonalLoop=1;jettySize=auto;html=1;exitX=1;exitY=0.5;exitDx=0;exitDy=0;exitPerimeter=0;entryX=0;entryY=0.5;entryDx=0;entryDy=0;labelBackgroundColor=default;strokeColor=default;align=center;verticalAlign=middle;fontFamily=Helvetica;fontSize=11;fontColor=default;endArrow=oval;endFill=1;" edge="1" parent="1" source="dH81x7TGgG7tPerTCJaM-220" target="dH81x7TGgG7tPerTCJaM-95">
          <mxGeometry relative="1" as="geometry">
            <Array as="points">
              <mxPoint x="1320" y="3140" />
              <mxPoint x="1320" y="680" />
            </Array>
          </mxGeometry>
        </mxCell>
        <mxCell id="dH81x7TGgG7tPerTCJaM-220" value="NOT" style="verticalLabelPosition=bottom;shadow=0;dashed=0;align=center;html=1;verticalAlign=top;shape=mxgraph.electrical.iec_logic_gates.not_2;fontFamily=Helvetica;fontSize=11;fontColor=default;" vertex="1" parent="1">
          <mxGeometry x="120" y="3100" width="66" height="80" as="geometry" />
        </mxCell>
        <mxCell id="dH81x7TGgG7tPerTCJaM-223" value="0" style="whiteSpace=wrap;html=1;aspect=fixed;fontFamily=Helvetica;fontSize=11;fontColor=default;" vertex="1" parent="1">
          <mxGeometry x="1240" y="400" width="40" height="40" as="geometry" />
        </mxCell>
        <mxCell id="dH81x7TGgG7tPerTCJaM-224" style="edgeStyle=orthogonalEdgeStyle;shape=connector;rounded=0;orthogonalLoop=1;jettySize=auto;html=1;exitX=0;exitY=0.5;exitDx=0;exitDy=0;entryX=1;entryY=0.5;entryDx=0;entryDy=0;labelBackgroundColor=default;strokeColor=default;align=center;verticalAlign=middle;fontFamily=Helvetica;fontSize=11;fontColor=default;endArrow=none;endFill=0;" edge="1" parent="1" source="dH81x7TGgG7tPerTCJaM-89" target="dH81x7TGgG7tPerTCJaM-223">
          <mxGeometry relative="1" as="geometry" />
        </mxCell>
      </root>
    </mxGraphModel>
  </diagram>
</mxfile>
